<?xml version="1.0" encoding="utf-8"?>
<!-- Generator: Adobe Illustrator 25.3.1, SVG Export Plug-In . SVG Version: 6.00 Build 0)  -->
<svg version="1.1" id="Layer_1" xmlns="http://www.w3.org/2000/svg" xmlns:xlink="http://www.w3.org/1999/xlink" x="0px" y="0px"
	 viewBox="0 0 2048 2048" style="enable-background:new 0 0 2048 2048;" xml:space="preserve">
<style type="text/css">
	.st0{fill:#DAE1F7;}
	.st1{fill:#6581E5;}
	.st2{fill:#C9D1F4;}
	.st3{fill:#2537B9;}
	.st4{fill:#8095FD;}
	.st5{fill:#788FFF;}
	.st6{fill:#2B39BE;}
	.st7{fill:#B1BEEF;}
	.st8{fill:#FFFFFF;}
	.st9{fill:#020041;}
	.st10{fill:#FA8071;}
	.st11{fill:#F9BEBB;}
	.st12{fill:#D35C53;}
	.st13{fill:#1A2461;}
	.st14{fill:#2033A0;}
	.st15{fill:#CCCCCC;}
	.st16{fill:#F88071;}
	.st17{fill:#5D5D5D;}
</style>
<g>
	<path class="st0" d="M1782.08,883.88c4.67-7.95,7.35-17.21,7.35-27.09V748.17c0-29.61-24-53.62-53.62-53.62
		c-29.61,0-53.62,24-53.62,53.62v0h-48.89v135.71h-57.55V819h-180.05v140.91c-10.87,1.05-21.7,2.44-32.48,4.17V762.9
		c0-33.51-27.17-60.68-60.68-60.68h0c-33.51,0-60.68,27.17-60.68,60.68v184.82h-38.42v-38.54c0-27.73-22.48-50.21-50.21-50.21h-17.5
		V699.02h-4.38v-21.74h-103.9v-39.21c0-28.21-22.87-51.07-51.07-51.07h-67.88c-28.21,0-51.07,22.87-51.07,51.07v39.21h-39.09V489.26
		c0-34.09-27.64-61.73-61.73-61.73h0c-34.09,0-61.73,27.64-61.73,61.73v209.76h-33.04V546.33H478.73v66.01h-58.54V474.28h-49.73v0
		c0-30.12-24.42-54.54-54.54-54.54s-54.54,24.42-54.54,54.54v110.5c0,10.06,2.73,19.47,7.48,27.56h-29.84v86.69v233.25
		c0,0-8.6,200.4,6.63,269.92c19.7,89.94,79.3,177.03,167.73,202.68c64.76,18.78,139.03,3.83,197.21,37.89
		c51.69,30.26,76.73,91.42,122.12,130.51c51.08,43.99,122.6,55.53,190,54.97c105.88-0.89,211.44-27.59,305-77.17
		c41.76-22.12,82.57-49.22,129.32-56.07c26.99-3.95,54.43-0.86,81.62,1.26c80.92,6.32,226.22-8.47,296.42-49.21
		c72.09-41.84,76.34-248.69,76.34-248.69V969.1v-85.21H1782.08z"/>
	<path class="st1" d="M1656.84,1489.4H383.91c-74.92,0-135.65,60.73-135.65,135.65v0h1544.23v0
		C1792.49,1550.13,1731.76,1489.4,1656.84,1489.4z"/>
	<g>
		<g>
			
				<rect x="371.76" y="868.37" transform="matrix(0.6246 0.781 -0.781 0.6246 996.8312 -89.0371)" class="st2" width="438.52" height="247.85"/>
			
				<rect x="371.8" y="868.4" transform="matrix(0.6246 0.781 -0.781 0.6246 996.8312 -89.0371)" class="st2" width="438.44" height="247.78"/>
			<path class="st3" d="M777.93,1123.58l46.82-37.45l-0.05-0.06l-37.61-47.02l-198.58-248.3l-37.66-47.08l-46.82,37.45l-99.91,79.91
				l-46.77,37.41l-0.05,0.04l37.66,47.08c0.02-0.01,0.03-0.03,0.05-0.04l198.58,248.3c-0.02,0.01-0.03,0.03-0.05,0.04l37.66,47.08
				l46.82-37.45c-0.02-0.02-0.03-0.04-0.05-0.06l99.91-79.9C777.89,1123.54,777.91,1123.56,777.93,1123.58z M565.67,802.29
				l205.14,256.51c-6.85,13.46-8.34,29.14-4.09,43.68l-106.84,85.45c-13.23-7.33-28.83-9.33-43.44-5.63L411.26,925.74
				c6.84-13.47,8.31-29.16,4.04-43.7l106.79-85.4C535.35,804.01,551.01,806.02,565.67,802.29z"/>
			<circle class="st4" cx="591.02" cy="992.3" r="68.32"/>
			<g>
				<g>
					<path class="st3" d="M545.33,1020.02l9.64-7.71c-5.13-7.04-8.58-15.09-9.43-20.73l14.3-6.45c1.07,6.13,3.73,13.82,9,20.41
						c4.62,5.78,10.02,7.95,14.08,4.71c3.85-3.08,3.69-8.28,0.23-17.81c-5.03-13.78-5.88-25.24,3.96-33.11
						c8.93-7.14,20.96-6.45,31.77,2.7l9.64-7.71l7.95,9.94l-8.93,7.14c5.13,7.04,7.36,12.74,8.42,17.39l-13.82,6.23
						c-0.99-3.53-2.39-10.06-8.23-17.37c-5.27-6.59-9.82-6.45-12.66-4.18c-3.35,2.68-2.64,7.93,1.01,19.15
						c5.39,15.48,3.71,24.81-5.42,32.11c-9.03,7.22-21.85,7-33.21-3.05l-10.35,8.28L545.33,1020.02z"/>
				</g>
			</g>
			<circle class="st3" cx="507.52" cy="887.88" r="23.08"/>
			<circle class="st3" cx="674.68" cy="1096.9" r="23.08"/>
		</g>
		<g>
			
				<rect x="363.68" y="882.94" transform="matrix(0.8744 0.4852 -0.4852 0.8744 561.6852 -156.3838)" class="st2" width="438.52" height="247.85"/>
			
				<rect x="363.72" y="882.97" transform="matrix(0.8744 0.4852 -0.4852 0.8744 561.6852 -156.3838)" class="st2" width="438.44" height="247.78"/>
			<path class="st3" d="M805.7,1057.3l29.09-52.43l-0.07-0.04l-52.65-29.21L504.06,821.37l-52.72-29.25l-29.09,52.43l-62.07,111.87
				l-29.06,52.37l-0.03,0.06l52.72,29.25c0.01-0.02,0.02-0.04,0.03-0.06l278.02,154.25c-0.01,0.02-0.02,0.04-0.03,0.06l52.72,29.25
				l29.09-52.43c-0.02-0.01-0.05-0.03-0.07-0.04l62.07-111.87C805.66,1057.28,805.68,1057.29,805.7,1057.3z M487.31,840.73
				l287.21,159.35c-1.22,15.05,3.35,30.12,12.81,41.95l-66.37,119.63c-15.02-1.76-30.21,2.32-42.32,11.3l-287.26-159.38
				c1.21-15.06-3.39-30.14-12.87-41.96l66.34-119.57C459.91,853.84,475.16,849.75,487.31,840.73z"/>
			<circle class="st4" cx="582.94" cy="1006.86" r="68.32"/>
			<g>
				<g>
					<path class="st3" d="M551.21,1049.86l5.99-10.79c-7.42-4.56-13.67-10.7-16.6-15.6l10.78-11.4c3.32,5.26,8.7,11.36,16.08,15.46
						c6.47,3.59,12.29,3.55,14.81-0.99c2.39-4.32,0.27-9.06-6.56-16.56c-9.88-10.83-15.03-21.11-8.91-32.13
						c5.55-10,16.94-13.93,30.41-9.57l5.99-10.79l11.13,6.18l-5.55,10c7.42,4.56,11.65,8.99,14.39,12.89l-10.42,11.01
						c-2.26-2.89-6.04-8.4-14.21-12.94c-7.38-4.1-11.53-2.24-13.3,0.94c-2.08,3.75,0.57,8.34,8.21,17.33
						c10.87,12.27,12.86,21.54,7.18,31.76c-5.61,10.11-17.55,14.77-31.88,9.8l-6.43,11.59L551.21,1049.86z"/>
				</g>
			</g>
			<circle class="st3" cx="466.03" cy="941.99" r="23.08"/>
			<circle class="st3" cx="700.07" cy="1071.85" r="23.08"/>
		</g>
	</g>
	<g>
		<path class="st5" d="M1184.92,1532.11H649.3V673.44c0-23.52,19.07-42.59,42.59-42.59h450.44c23.52,0,42.59,19.07,42.59,42.59
			V1532.11z"/>
		<path class="st6" d="M1184.92,805.92H649.3V673.44c0-23.52,19.07-42.59,42.59-42.59h450.44c23.52,0,42.59,19.07,42.59,42.59
			V805.92z"/>
		<g>
			<g>
				<path class="st5" d="M856.53,758.68c0.56,1.68,0.91,3.02,1.05,4c0.14,0.98-0.05,1.72-0.56,2.21c-0.52,0.49-1.43,0.79-2.73,0.91
					c-1.31,0.12-3.11,0.18-5.4,0.18c-2.38,0-4.24-0.04-5.57-0.11c-1.33-0.07-2.35-0.21-3.05-0.42c-0.7-0.21-1.19-0.5-1.47-0.88
					c-0.28-0.37-0.51-0.86-0.7-1.47l-6.1-18.23h-34.08l-5.75,17.74c-0.19,0.66-0.43,1.2-0.74,1.65c-0.3,0.44-0.8,0.8-1.47,1.05
					c-0.68,0.26-1.64,0.43-2.87,0.53c-1.24,0.09-2.86,0.14-4.87,0.14c-2.15,0-3.83-0.07-5.05-0.21c-1.22-0.14-2.06-0.48-2.52-1.02
					c-0.47-0.54-0.63-1.3-0.49-2.28c0.14-0.98,0.49-2.29,1.05-3.93l27.98-80.5c0.28-0.79,0.61-1.44,0.98-1.93
					c0.37-0.49,0.97-0.86,1.79-1.12c0.82-0.26,1.95-0.42,3.4-0.49c1.45-0.07,3.37-0.1,5.75-0.1c2.76,0,4.95,0.04,6.59,0.1
					c1.64,0.07,2.91,0.23,3.82,0.49c0.91,0.26,1.57,0.64,1.96,1.16c0.4,0.51,0.74,1.22,1.02,2.1L856.53,758.68z M814.88,692.14
					h-0.07l-12.83,38.57h25.73L814.88,692.14z"/>
				<path class="st5" d="M918.38,682.39c0,1.36-0.06,2.51-0.18,3.47c-0.12,0.96-0.29,1.73-0.53,2.31c-0.23,0.59-0.53,1.02-0.88,1.3
					c-0.35,0.28-0.74,0.42-1.16,0.42h-22.72v73.14c0,0.47-0.15,0.89-0.46,1.26c-0.3,0.37-0.81,0.68-1.51,0.91
					c-0.7,0.23-1.65,0.42-2.84,0.56c-1.19,0.14-2.68,0.21-4.45,0.21c-1.78,0-3.26-0.07-4.45-0.21c-1.19-0.14-2.14-0.33-2.84-0.56
					c-0.7-0.23-1.2-0.54-1.51-0.91c-0.3-0.37-0.46-0.79-0.46-1.26v-73.14h-22.72c-0.47,0-0.87-0.14-1.19-0.42
					c-0.33-0.28-0.61-0.71-0.84-1.3c-0.23-0.58-0.41-1.36-0.53-2.31c-0.12-0.96-0.17-2.12-0.17-3.47c0-1.4,0.06-2.59,0.17-3.58
					c0.12-0.98,0.29-1.76,0.53-2.35c0.23-0.58,0.51-1.01,0.84-1.26c0.33-0.26,0.72-0.39,1.19-0.39h63.95c0.42,0,0.81,0.13,1.16,0.39
					c0.35,0.26,0.64,0.68,0.88,1.26c0.23,0.59,0.41,1.37,0.53,2.35C918.32,679.79,918.38,680.99,918.38,682.39z"/>
				<path class="st5" d="M1034.85,763.03c0,0.47-0.13,0.89-0.39,1.26c-0.26,0.37-0.73,0.68-1.4,0.91c-0.68,0.23-1.58,0.42-2.7,0.56
					s-2.55,0.21-4.28,0.21c-1.68,0-3.08-0.07-4.21-0.21s-2.01-0.33-2.66-0.56c-0.66-0.23-1.12-0.54-1.4-0.91
					c-0.28-0.37-0.42-0.79-0.42-1.26v-73.84h-0.14l-26.29,73.77c-0.19,0.61-0.49,1.11-0.91,1.51c-0.42,0.4-0.99,0.71-1.72,0.95
					c-0.72,0.23-1.65,0.39-2.77,0.46c-1.12,0.07-2.48,0.11-4.07,0.11s-2.94-0.06-4.07-0.18c-1.12-0.12-2.05-0.3-2.77-0.56
					c-0.72-0.26-1.3-0.57-1.72-0.95c-0.42-0.37-0.7-0.82-0.84-1.33l-25.39-73.77h-0.14v73.84c0,0.47-0.13,0.89-0.39,1.26
					c-0.26,0.37-0.74,0.68-1.44,0.91c-0.7,0.23-1.6,0.42-2.7,0.56c-1.1,0.14-2.51,0.21-4.24,0.21c-1.68,0-3.08-0.07-4.21-0.21
					s-2.02-0.33-2.7-0.56c-0.68-0.23-1.15-0.54-1.4-0.91c-0.26-0.37-0.39-0.79-0.39-1.26v-80.85c0-2.38,0.63-4.21,1.89-5.47
					c1.26-1.26,2.95-1.89,5.05-1.89h12.06c2.15,0,4,0.18,5.54,0.53c1.54,0.35,2.88,0.94,4,1.75c1.12,0.82,2.06,1.89,2.81,3.23
					c0.75,1.33,1.4,2.98,1.96,4.94l19.64,54.06h0.28l20.34-53.92c0.61-1.96,1.27-3.62,2-4.98c0.72-1.36,1.57-2.45,2.52-3.3
					c0.96-0.84,2.09-1.44,3.4-1.79c1.31-0.35,2.83-0.53,4.56-0.53h12.41c1.26,0,2.35,0.16,3.26,0.49c0.91,0.33,1.66,0.81,2.24,1.44
					c0.58,0.63,1.03,1.4,1.33,2.31c0.3,0.91,0.46,1.95,0.46,3.12V763.03z"/>
			</g>
		</g>
		<rect x="687.17" y="877" class="st6" width="321.94" height="256.84"/>
		<rect x="687.17" y="1235.79" class="st7" width="468.5" height="256.84"/>
		<rect x="1025.77" y="877" class="st6" width="137.37" height="256.84"/>
		<path class="st8" d="M973.4,1111.37H722.87c-9.76,0-17.67-7.91-17.67-17.67V917.14c0-9.76,7.91-17.67,17.67-17.67H973.4
			c9.76,0,17.67,7.91,17.67,17.67v176.56C991.07,1103.46,983.16,1111.37,973.4,1111.37z"/>
		<g>
			<rect x="1041.33" y="913.7" class="st8" width="23.22" height="23.22"/>
			<rect x="1071.09" y="913.7" class="st8" width="23.22" height="23.22"/>
			<rect x="1099.95" y="913.7" class="st8" width="23.22" height="23.22"/>
			<rect x="1128.35" y="913.7" class="st8" width="23.22" height="23.22"/>
			<rect x="1041.33" y="942.73" class="st8" width="23.22" height="23.22"/>
			<rect x="1071.09" y="942.73" class="st8" width="23.22" height="23.22"/>
			<rect x="1099.95" y="942.73" class="st8" width="23.22" height="23.22"/>
			<rect x="1128.35" y="942.73" class="st8" width="23.22" height="23.22"/>
			<rect x="1041.33" y="971.75" class="st8" width="23.22" height="23.22"/>
			<rect x="1071.09" y="971.75" class="st8" width="23.22" height="23.22"/>
			<rect x="1099.95" y="971.75" class="st8" width="23.22" height="23.22"/>
			<rect x="1128.35" y="971.75" class="st8" width="23.22" height="23.22"/>
			<rect x="1041.33" y="1000.78" class="st8" width="23.22" height="23.22"/>
			<rect x="1071.09" y="1000.78" class="st8" width="23.22" height="23.22"/>
			<rect x="1099.95" y="1000.78" class="st8" width="23.22" height="23.22"/>
			<rect x="1128.35" y="1000.78" class="st8" width="23.22" height="23.22"/>
			<rect x="1041.33" y="1029.81" class="st8" width="23.22" height="23.22"/>
			<rect x="1071.09" y="1029.81" class="st8" width="23.22" height="23.22"/>
			<rect x="1099.95" y="1029.81" class="st8" width="23.22" height="23.22"/>
			<rect x="1128.35" y="1029.81" class="st8" width="23.22" height="23.22"/>
		</g>
		<rect x="1041.33" y="1071.45" class="st9" width="110.24" height="38.65"/>
		<path class="st6" d="M1144.22,1211.78h-95.54c-11.55,0-20.91-9.36-20.91-20.91v-17.36c0-11.55,9.36-20.91,20.91-20.91h95.54
			c11.55,0,20.91,9.36,20.91,20.91v17.36C1165.13,1202.42,1155.77,1211.78,1144.22,1211.78z"/>
		<path class="st9" d="M1149.94,1187.92h-110.98c-3.16,0-5.73-2.56-5.73-5.73l0,0c0-3.16,2.56-5.73,5.73-5.73h110.98
			c3.16,0,5.73,2.56,5.73,5.73l0,0C1155.67,1185.35,1153.1,1187.92,1149.94,1187.92z"/>
		<rect x="687.17" y="1169.69" class="st6" width="203.9" height="35.32"/>
		<rect x="907.16" y="1169.69" class="st6" width="89.44" height="34.34"/>
	</g>
	<g>
		<g>
			<path class="st10" d="M1178.02,1235.4l-117.74-106.16c-10.34-9.32-11.16-25.25-1.84-35.59l54.3-60.22
				c9.32-10.34,25.25-11.16,35.59-1.84l117.74,106.16c10.34,9.32,11.16,25.25,1.84,35.59l-54.3,60.22
				C1204.29,1243.9,1188.35,1244.72,1178.02,1235.4z"/>
			
				<rect x="1077.63" y="1101.94" transform="matrix(0.7427 0.6696 -0.6696 0.7427 1049.1578 -505.3221)" class="st9" width="208.94" height="21.11"/>
			
				<rect x="1091.1" y="1110.58" transform="matrix(0.7427 0.6696 -0.6696 0.7427 1045.5159 -478.5705)" class="st11" width="108.75" height="21.11"/>
			
				<rect x="1190.11" y="1165.09" transform="matrix(0.7427 0.6696 -0.6696 0.7427 1097.5732 -505.0269)" class="st11" width="31.64" height="21.11"/>
		</g>
		<g>
			<path class="st12" d="M1631.12,1289.58l-142.9-29.81c-4.38-0.91-8.69-0.39-12.35,1.16c-0.17,0.07-0.33,0.13-0.5,0.2
				c-0.17,0.07-0.33,0.13-0.5,0.2c-0.17,0.07-0.33,0.13-0.5,0.2c-0.17,0.07-0.33,0.13-0.5,0.2c-0.17,0.07-0.33,0.13-0.5,0.2
				c-0.17,0.07-0.33,0.13-0.5,0.2c-0.17,0.07-0.33,0.13-0.5,0.2c-0.17,0.07-0.33,0.13-0.5,0.2c-0.17,0.07-0.33,0.13-0.5,0.2
				c-0.17,0.07-0.33,0.13-0.5,0.2c-0.17,0.07-0.33,0.13-0.5,0.2c-0.17,0.07-0.33,0.13-0.5,0.2c-0.17,0.07-0.33,0.13-0.5,0.2
				c-0.17,0.07-0.33,0.13-0.5,0.2c-0.17,0.07-0.33,0.13-0.5,0.2c-0.17,0.07-0.33,0.13-0.5,0.2c-0.17,0.07-0.33,0.13-0.5,0.2
				c-0.17,0.07-0.33,0.13-0.5,0.2c-0.17,0.07-0.33,0.13-0.5,0.2c-0.17,0.07-0.33,0.13-0.5,0.2c-0.17,0.07-0.33,0.13-0.5,0.2
				c-0.17,0.07-0.33,0.13-0.5,0.2c-0.17,0.07-0.33,0.13-0.5,0.2c-0.17,0.07-0.33,0.13-0.5,0.2c-0.17,0.07-0.33,0.13-0.5,0.2
				c-0.17,0.07-0.33,0.13-0.5,0.2c-0.17,0.07-0.33,0.13-0.5,0.2c-0.17,0.07-0.33,0.13-0.5,0.2c-0.17,0.07-0.33,0.13-0.5,0.2
				c-0.17,0.07-0.33,0.13-0.5,0.2c-6.14,2.4-10.57,7.64-10.59,13.95l-0.3,92.12c-0.02,7.12,5.69,13.33,13.83,15.03l142.9,29.81
				c4.38,0.91,8.69,0.39,12.35-1.16c0.17-0.07,0.33-0.13,0.5-0.2c0.17-0.07,0.33-0.13,0.5-0.2c0.17-0.07,0.33-0.13,0.5-0.2
				c0.17-0.07,0.33-0.13,0.5-0.2c0.17-0.07,0.33-0.13,0.5-0.2c0.17-0.07,0.33-0.13,0.5-0.2c0.17-0.07,0.33-0.13,0.5-0.2
				c0.17-0.07,0.33-0.13,0.5-0.2c0.17-0.06,0.33-0.13,0.49-0.2c0.17-0.07,0.33-0.13,0.5-0.2c0.17-0.07,0.33-0.13,0.5-0.2
				c0.17-0.07,0.33-0.13,0.5-0.2c0.17-0.07,0.33-0.13,0.5-0.2c0.17-0.07,0.33-0.13,0.5-0.2c0.17-0.07,0.33-0.13,0.5-0.2
				c0.17-0.07,0.33-0.13,0.5-0.2c0.17-0.07,0.33-0.13,0.5-0.2c0.17-0.07,0.33-0.13,0.5-0.2c0.17-0.07,0.33-0.13,0.5-0.2
				c0.17-0.07,0.33-0.13,0.5-0.2c0.17-0.07,0.33-0.13,0.5-0.2c0.17-0.07,0.33-0.13,0.5-0.2c0.17-0.07,0.33-0.13,0.5-0.2
				c0.17-0.07,0.33-0.13,0.5-0.2c0.17-0.07,0.33-0.13,0.5-0.2c0.17-0.07,0.33-0.13,0.5-0.2c0.17-0.07,0.33-0.13,0.5-0.2
				c0.17-0.07,0.33-0.13,0.5-0.2c0.17-0.07,0.33-0.13,0.5-0.2c0.17-0.07,0.33-0.13,0.5-0.2c6.14-2.4,10.57-7.64,10.59-13.95
				l0.3-92.12C1644.97,1297.49,1639.25,1291.28,1631.12,1289.58z"/>
			<path class="st10" d="M1615.72,1295.83l-142.9-29.81c-11.4-2.38-22.41,4.93-22.44,14.91l-0.3,92.12
				c-0.02,7.12,5.69,13.33,13.83,15.03l142.9,29.81c11.4,2.38,22.41-4.93,22.45-14.91l0.3-92.12
				C1629.58,1303.74,1623.86,1297.53,1615.72,1295.83z"/>
			<path class="st12" d="M1569.26,1241.53c2.2,0.69,4.46,1.48,6.11,3.08c3.46,3.36,3.12,8.9,2.53,13.68
				c-0.49,3.95-0.97,7.9-1.46,11.85c-0.39,3.2-1.01,6.79-3.66,8.64c-2.66,1.85-6.27,1.16-9.42,0.4c-0.75-0.18-1.55-0.4-2.02-1.01
				c-0.5-0.65-0.47-1.56-0.41-2.38c0.27-3.85,0.54-7.71,0.81-11.56c0.13-1.9,0.26-3.85-0.23-5.69c-0.86-3.2-3.52-5.68-6.52-7.1
				c-3.88-1.85-12.84-4.78-16.36-1.14c-2.88,3.14-1.73,10.04-2.24,14.05c-0.27,2.12-0.56,4.28-1.47,6.2s-2.58,3.63-4.68,4.03
				c-3.09,0.58-6.1-1.87-7.24-4.8s-0.88-6.19-0.6-9.32c0.19-2.18,0.39-4.35,0.58-6.53c1.06-11.84,5.44-19.16,18.04-18.79
				C1550.69,1235.43,1560.11,1238.68,1569.26,1241.53z"/>
		</g>
		<path class="st13" d="M1332.6,1557.96c-20.04,0.55-41.82,0.56-57.75-11.62c-9.43-7.21-15.54-17.83-21.39-28.17
			c-1.01-1.78-2.05-3.79-1.58-5.78c0.93-3.88,6.23-4.25,10.19-3.77c23.36,2.79,46.82,4.72,70.32,5.78
			c16.76,0.76,34.33-1.44,45.43,13.69c7.41,10.1,8.39,22.76-1.02,31.71c-5.35,5.08-16.09,9.49-23.37,9.79
			C1344.34,1569.99,1336.92,1557.85,1332.6,1557.96z"/>
		<path class="st13" d="M1585.99,1524.19c-14.26,11.34-30.09,23.26-48.31,23.11c-10.8-0.09-21.03-4.47-30.93-8.78
			c-1.71-0.74-3.56-1.63-4.3-3.34c-1.44-3.32,2.21-6.49,5.34-8.31c18.5-10.74,36.6-22.15,54.26-34.22
			c12.59-8.61,24.16-19.8,40.49-14.87c10.9,3.29,18.54,11.96,16.58,23.6c-1.11,6.61-6.51,15.69-11.63,19.88
			C1601.09,1526.51,1589.06,1521.74,1585.99,1524.19z"/>
		<path class="st11" d="M1244.5,1168.32c-4.24-2.97-8.1-6.49-11.43-10.45c-2.58-3.06-4.89-6.48-5.81-10.37
			c-0.92-3.89-0.24-8.34,2.54-11.22c1.86-1.92,4.55-3.1,5.77-5.47c1.01-1.97,0.78-4.35,1.51-6.44c1.45-4.18,6.51-6.2,10.91-5.63
			c4.39,0.57,8.25,3.1,11.91,5.59c0.14-3.15,4.88-3.74,7.49-1.99c4.91,3.3,5.77,9.98,7.33,15.68c1.42,5.18,3.76,10.08,4.95,15.31
			C1285.2,1177.57,1259.09,1178.52,1244.5,1168.32z"/>
		<path class="st11" d="M1535.05,1242.51c-2.02,4.09-0.28,8.96,1.47,13.17c1.3,3.13,2.63,6.32,4.87,8.85
			c4.59,5.21,12.58,6.72,19.13,4.43c6.56-2.29,11.63-7.93,14.21-14.37c0.97-2.42,1.63-5.01,1.47-7.61
			c-0.38-6.34-5.45-11.54-6.42-17.81c-0.99-6.37-0.12-12.49-7.37-15.22c-4.16-1.57-9.37-0.89-12.56,2.24
			c-3.25,3.19-3.85,8.31-5.16,12.44C1542.71,1234.94,1537.77,1236.99,1535.05,1242.51z"/>
		<g>
			<path class="st11" d="M1479.45,997.21c0.53-4.33,0.77-9.09-1.75-12.64c-16.55-23.32-50.92,11.65-45.34,32.47
				c2.97,11.08,14.58,17.73,25.77,14.79C1473,1027.9,1477.83,1010.47,1479.45,997.21z"/>
			<path class="st11" d="M1385.47,944.27c1.04,6.61,3.27,13.03,3.83,19.7c0.54,6.32-0.42,12.71,0.28,19.01
				c1.34,12.07,9.19,23.21,20.1,28.54c10.91,5.33,24.52,4.68,34.87-1.67c4.04-2.48,7.56-5.74,10.79-9.21
				c10.34-11.14,17.92-24.82,21.89-39.5c0.93-3.43,1.66-6.93,1.73-10.48c0.09-4.79-1.03-9.52-2.45-14.1
				C1460.13,883.88,1374.62,875.52,1385.47,944.27z"/>
			<path class="st9" d="M1377.19,920.88c1.07,3.71,3.17,8,7.03,8.27c5.91-8.59,20.11-6.95,27.28,0.62
				c7.18,7.56,9.11,18.57,10.36,28.92c3.33-4.94,8.4-10.55,14.09-8.79c5.42,1.68,6.67,8.6,7.4,14.23c0.91,7,2.48,13.92,4.68,20.63
				c0.6,1.82,1.46,3.85,3.27,4.46c1.33,0.45,2.77-0.02,4.09-0.49c7.92-2.79,16.34-5.94,21.24-12.75c2.8-3.89,4.16-8.61,5.42-13.24
				c4.31-15.88,8.03-32.41,5.54-48.68s-12.51-32.35-28.12-37.55c-8.68-2.89-20.17-1.01-23.89,7.34c1.74-3.9-16.7-6.88-18.74-6.76
				c-9.97,0.6-11.76,7.25-19.2,10.8C1381.9,895.4,1370.13,896.32,1377.19,920.88z"/>
		</g>
		<path class="st14" d="M1557.75,1059.56c10.22,11.61,20.44,23.21,30.65,34.82c2.63,2.98,5.32,6.09,6.5,9.88
			c1.23,3.96,0.67,8.23,0.1,12.34c-4.89,35.12-9.79,70.23-14.68,105.35c-14.38-4.81-28.75-9.62-43.13-14.43
			c2.38-28.26,5.95-56.41,10.72-84.37c-22.73-23.26-45.94-48.54-53.2-80.24c-3.93-17.13,4.83-28.24,21.2-20.35
			C1532.65,1030.63,1545.72,1045.89,1557.75,1059.56z"/>
		<path class="st15" d="M1427.61,1019.76c13.11-9.76,28.03-17.1,43.77-21.52c2.14-0.6,4.51-1.14,6.54-0.22
			c4.77,2.16,3.99,10.24,8.67,12.57c-17.27,5.9-32.59,14.56-48.8,22.62C1436.93,1031.73,1429.6,1018.28,1427.61,1019.76z"/>
		<path class="st9" d="M1410.47,1378.72c-3.11,3.84-6.26,7.73-8.29,12.23c-2.15,4.76-2.95,10-3.73,15.16
			c-6.98,46.17-13.96,92.33-20.93,138.5c-0.21,1.42-0.47,2.92-1.41,4c-1.61,1.84-4.47,1.71-6.88,1.32
			c-19.53-3.1-37.95-12.82-51.52-27.2c9.16-46.26,18.31-92.52,27.47-138.78c2.76-13.92,5.53-27.92,10.43-41.24
			c14.62-39.75,47.06-70.84,62.46-110.29c32.78-8.1,67.01-10.32,100.57-6.54c11.57,31.63,17.67,65.25,17.94,98.93
			c0.09,11.26-0.44,22.7,2.41,33.59c2.52,9.62,7.56,18.35,12.59,26.92c20.46,34.87,41.62,69.31,63.49,103.32
			c-12.33,16.3-28.83,29.42-47.49,37.77c-16.3-33.41-36.52-64.91-60.12-93.64c-11.07-13.48-23.12-26.73-29.33-43.03
			c-5.77-15.14-6.05-31.73-6.26-47.93c-0.12-9.69,0.97-20.75-1.49-29.82C1452.54,1312.95,1421.02,1364.21,1410.47,1378.72z"/>
		<path class="st6" d="M1492.7,1012.12c33,6.66,50.86,39.09,52.1,68.54c1.24,29.45-9.2,58.37-10.55,87.81
			c-1.03,22.35,3.2,44.8,0.68,67.06s-13.66,45.67-36.48,55.99c-16.97,7.68-37.71,6.76-55.77,1.3s-34.03-15.05-49.75-24.53
			c13.68-59.52-11.74-118.75-3.33-178.03C1395.06,1051.76,1444.16,1002.32,1492.7,1012.12z"/>
		<path class="st6" d="M1372.94,1106.24c5.81-16.68,13.22-32.63,25.2-45.94c9.48-10.53,24.91-19.11,37.35-12.33
			c9.04,4.93,12.71,16.51,11.38,26.72c-1.79,13.72-10.4,27.9-15.67,40.67c-6.51,15.77-13.75,31.3-22.15,46.16
			c-12.57,22.23-25.13,44.46-37.7,66.69c-1.29,2.28-2.75,4.72-5.17,5.73c-2.23,0.93-4.78,0.43-7.13-0.12
			c-32.53-7.59-63.39-22.22-89.85-42.61c-3.52-17.4,5.27-36.6,20.75-45.3c15.97,10.18,32.15,23.35,49.27,31.39
			c10.47,4.92,9.74,1.97,13.95-8.83c2.89-7.42,5.32-15,7.65-22.62C1364.83,1132.84,1368.39,1119.32,1372.94,1106.24z"/>
		<path class="st15" d="M1265.1,1162.44c2.44-5.72,7.32-9.97,12.04-14.01c0.96-0.82,2.09-1.69,3.33-1.48
			c1.01,0.17,1.74,1.01,2.4,1.79c2.09,2.52,4.17,5.03,6.26,7.55c-2.02-2.43-14.27,26.03-14.75,26.33c-2.09,1.3-9.93-1.59-11.22-3.44
			C1260.9,1175.91,1263.71,1165.68,1265.1,1162.44z"/>
		<path class="st15" d="M1542.8,1216.18c6.13,1.57,12.14,3.64,17.93,6.2c1.28,0.57,2.55,1.16,3.83,1.74c3.1,1.44,6.2,2.87,9.3,4.31
			c2.06-4.66,3.37-9.65,3.87-14.73c-1.29,1.17-3.29,0.15-4.86-0.6c-2.26-1.07-4.77-1.46-7.22-1.93c-5.38-1.01-13.18-5.28-18.41-5.05
			c-3.31,0.15-2.29-0.81-3.94,2.18C1542.97,1208.91,1542.47,1216.1,1542.8,1216.18z"/>
	</g>
	<g>
		<g>
			<path class="st12" d="M838.09,1525.71c0.02-0.15,0.03-0.3,0.03-0.45c0-9.86-42.15-17.85-94.14-17.85s-94.14,7.99-94.14,17.85
				c0,0.15,0.01,0.3,0.03,0.45c-0.02,0.15-0.03,0.3-0.03,0.45s0.01,0.3,0.03,0.45c-0.02,0.15-0.03,0.3-0.03,0.45s0.01,0.3,0.03,0.45
				c-0.02,0.15-0.03,0.3-0.03,0.45c0,0.15,0.01,0.3,0.03,0.45c-0.02,0.15-0.03,0.3-0.03,0.45c0,0.15,0.01,0.3,0.03,0.45
				c-0.02,0.15-0.03,0.3-0.03,0.45s0.01,0.3,0.03,0.45c-0.02,0.15-0.03,0.3-0.03,0.45s0.01,0.3,0.03,0.45
				c-0.02,0.15-0.03,0.3-0.03,0.45c0,0.15,0.01,0.3,0.03,0.45c-0.02,0.15-0.03,0.3-0.03,0.45s0.01,0.3,0.03,0.45
				c-0.02,0.15-0.03,0.3-0.03,0.45s0.01,0.3,0.03,0.45c-0.02,0.15-0.03,0.3-0.03,0.45c0,0.15,0.01,0.3,0.03,0.45
				c-0.02,0.15-0.03,0.3-0.03,0.45s0.01,0.3,0.03,0.45c-0.02,0.15-0.03,0.3-0.03,0.45c0,0.15,0.01,0.3,0.03,0.45
				c-0.02,0.15-0.03,0.3-0.03,0.45c0,0.15,0.01,0.3,0.03,0.45c-0.02,0.15-0.03,0.3-0.03,0.45c0,0.15,0.01,0.3,0.03,0.45
				c-0.02,0.15-0.03,0.3-0.03,0.45s0.01,0.3,0.03,0.45c-0.02,0.15-0.03,0.3-0.03,0.45c0,0.15,0.01,0.3,0.03,0.45
				c-0.02,0.15-0.03,0.3-0.03,0.45s0.01,0.3,0.03,0.45c-0.02,0.15-0.03,0.3-0.03,0.45c0,0.15,0.01,0.3,0.03,0.45
				c-0.02,0.15-0.03,0.3-0.03,0.45c0,0.15,0.01,0.3,0.03,0.45c-0.02,0.15-0.03,0.3-0.03,0.45s0.01,0.3,0.03,0.45
				c-0.02,0.15-0.03,0.3-0.03,0.45c0,0.15,0.01,0.3,0.03,0.45c-0.02,0.15-0.03,0.3-0.03,0.45c0,0.15,0.01,0.3,0.03,0.45
				c-0.02,0.15-0.03,0.3-0.03,0.45c0,0.15,0.01,0.3,0.03,0.45c-0.02,0.15-0.03,0.3-0.03,0.45c0,0.15,0.01,0.3,0.03,0.45
				c-0.02,0.15-0.03,0.3-0.03,0.45c0,0.15,0.01,0.3,0.03,0.45c-0.02,0.15-0.03,0.3-0.03,0.45s0.01,0.3,0.03,0.45
				c-0.02,0.15-0.03,0.3-0.03,0.45c0,0.15,0.01,0.3,0.03,0.45c-0.02,0.15-0.03,0.3-0.03,0.45c0,0.15,0.01,0.3,0.03,0.45
				c-0.02,0.15-0.03,0.3-0.03,0.45s0.01,0.3,0.03,0.45c-0.02,0.15-0.03,0.3-0.03,0.45c0,0.15,0.01,0.3,0.03,0.45
				c-0.02,0.15-0.03,0.3-0.03,0.45c0,9.86,42.15,17.85,94.14,17.85s94.14-7.99,94.14-17.85c0-0.15-0.01-0.3-0.03-0.45
				c0.02-0.15,0.03-0.3,0.03-0.45c0-0.15-0.01-0.3-0.03-0.45c0.02-0.15,0.03-0.3,0.03-0.45s-0.01-0.3-0.03-0.45
				c0.02-0.15,0.03-0.3,0.03-0.45c0-0.15-0.01-0.3-0.03-0.45c0.02-0.15,0.03-0.3,0.03-0.45c0-0.15-0.01-0.3-0.03-0.45
				c0.02-0.15,0.03-0.3,0.03-0.45s-0.01-0.3-0.03-0.45c0.02-0.15,0.03-0.3,0.03-0.45c0-0.15-0.01-0.3-0.03-0.45
				c0.02-0.15,0.03-0.3,0.03-0.45c0-0.15-0.01-0.3-0.03-0.45c0.02-0.15,0.03-0.3,0.03-0.45c0-0.15-0.01-0.3-0.03-0.45
				c0.02-0.15,0.03-0.3,0.03-0.45c0-0.15-0.01-0.3-0.03-0.45c0.02-0.15,0.03-0.3,0.03-0.45c0-0.15-0.01-0.3-0.03-0.45
				c0.02-0.15,0.03-0.3,0.03-0.45s-0.01-0.3-0.03-0.45c0.02-0.15,0.03-0.3,0.03-0.45c0-0.15-0.01-0.3-0.03-0.45
				c0.02-0.15,0.03-0.3,0.03-0.45c0-0.15-0.01-0.3-0.03-0.45c0.02-0.15,0.03-0.3,0.03-0.45s-0.01-0.3-0.03-0.45
				c0.02-0.15,0.03-0.3,0.03-0.45c0-0.15-0.01-0.3-0.03-0.45c0.02-0.15,0.03-0.3,0.03-0.45s-0.01-0.3-0.03-0.45
				c0.02-0.15,0.03-0.3,0.03-0.45c0-0.15-0.01-0.3-0.03-0.45c0.02-0.15,0.03-0.3,0.03-0.45c0-0.15-0.01-0.3-0.03-0.45
				c0.02-0.15,0.03-0.3,0.03-0.45c0-0.15-0.01-0.3-0.03-0.45c0.02-0.15,0.03-0.3,0.03-0.45s-0.01-0.3-0.03-0.45
				c0.02-0.15,0.03-0.3,0.03-0.45c0-0.15-0.01-0.3-0.03-0.45c0.02-0.15,0.03-0.3,0.03-0.45s-0.01-0.3-0.03-0.45
				c0.02-0.15,0.03-0.3,0.03-0.45s-0.01-0.3-0.03-0.45c0.02-0.15,0.03-0.3,0.03-0.45c0-0.15-0.01-0.3-0.03-0.45
				c0.02-0.15,0.03-0.3,0.03-0.45s-0.01-0.3-0.03-0.45c0.02-0.15,0.03-0.3,0.03-0.45s-0.01-0.3-0.03-0.45
				c0.02-0.15,0.03-0.3,0.03-0.45c0-0.15-0.01-0.3-0.03-0.45c0.02-0.15,0.03-0.3,0.03-0.45c0-0.15-0.01-0.3-0.03-0.45
				c0.02-0.15,0.03-0.3,0.03-0.45s-0.01-0.3-0.03-0.45c0.02-0.15,0.03-0.3,0.03-0.45S838.11,1525.86,838.09,1525.71z"/>
			<ellipse class="st16" cx="743.98" cy="1525.26" rx="94.14" ry="17.85"/>
			<ellipse class="st17" cx="743.98" cy="1522.81" rx="74.24" ry="9.53"/>
		</g>
		<g>
			<path class="st12" d="M838.09,1490.29c0.02-0.15,0.03-0.3,0.03-0.45c0-9.86-42.15-17.85-94.14-17.85s-94.14,7.99-94.14,17.85
				c0,0.15,0.01,0.3,0.03,0.45c-0.02,0.15-0.03,0.3-0.03,0.45c0,0.15,0.01,0.3,0.03,0.45c-0.02,0.15-0.03,0.3-0.03,0.45
				s0.01,0.3,0.03,0.45c-0.02,0.15-0.03,0.3-0.03,0.45s0.01,0.3,0.03,0.45c-0.02,0.15-0.03,0.3-0.03,0.45c0,0.15,0.01,0.3,0.03,0.45
				c-0.02,0.15-0.03,0.3-0.03,0.45s0.01,0.3,0.03,0.45c-0.02,0.15-0.03,0.3-0.03,0.45s0.01,0.3,0.03,0.45
				c-0.02,0.15-0.03,0.3-0.03,0.45s0.01,0.3,0.03,0.45c-0.02,0.15-0.03,0.3-0.03,0.45s0.01,0.3,0.03,0.45
				c-0.02,0.15-0.03,0.3-0.03,0.45c0,0.15,0.01,0.3,0.03,0.45c-0.02,0.15-0.03,0.3-0.03,0.45c0,0.15,0.01,0.3,0.03,0.45
				c-0.02,0.15-0.03,0.3-0.03,0.45s0.01,0.3,0.03,0.45c-0.02,0.15-0.03,0.3-0.03,0.45s0.01,0.3,0.03,0.45
				c-0.02,0.15-0.03,0.3-0.03,0.45c0,0.15,0.01,0.3,0.03,0.45c-0.02,0.15-0.03,0.3-0.03,0.45s0.01,0.3,0.03,0.45
				c-0.02,0.15-0.03,0.3-0.03,0.45s0.01,0.3,0.03,0.45c-0.02,0.15-0.03,0.3-0.03,0.45c0,0.15,0.01,0.3,0.03,0.45
				c-0.02,0.15-0.03,0.3-0.03,0.45s0.01,0.3,0.03,0.45c-0.02,0.15-0.03,0.3-0.03,0.45s0.01,0.3,0.03,0.45
				c-0.02,0.15-0.03,0.3-0.03,0.45c0,0.15,0.01,0.3,0.03,0.45c-0.02,0.15-0.03,0.3-0.03,0.45c0,0.15,0.01,0.3,0.03,0.45
				c-0.02,0.15-0.03,0.3-0.03,0.45c0,0.15,0.01,0.3,0.03,0.45c-0.02,0.15-0.03,0.3-0.03,0.45c0,0.15,0.01,0.3,0.03,0.45
				c-0.02,0.15-0.03,0.3-0.03,0.45s0.01,0.3,0.03,0.45c-0.02,0.15-0.03,0.3-0.03,0.45c0,0.15,0.01,0.3,0.03,0.45
				c-0.02,0.15-0.03,0.3-0.03,0.45c0,0.15,0.01,0.3,0.03,0.45c-0.02,0.15-0.03,0.3-0.03,0.45s0.01,0.3,0.03,0.45
				c-0.02,0.15-0.03,0.3-0.03,0.45c0,0.15,0.01,0.3,0.03,0.45c-0.02,0.15-0.03,0.3-0.03,0.45c0,0.15,0.01,0.3,0.03,0.45
				c-0.02,0.15-0.03,0.3-0.03,0.45s0.01,0.3,0.03,0.45c-0.02,0.15-0.03,0.3-0.03,0.45c0,0.15,0.01,0.3,0.03,0.45
				c-0.02,0.15-0.03,0.3-0.03,0.45c0,9.86,42.15,17.85,94.14,17.85s94.14-7.99,94.14-17.85c0-0.15-0.01-0.3-0.03-0.45
				c0.02-0.15,0.03-0.3,0.03-0.45c0-0.15-0.01-0.3-0.03-0.45c0.02-0.15,0.03-0.3,0.03-0.45s-0.01-0.3-0.03-0.45
				c0.02-0.15,0.03-0.3,0.03-0.45c0-0.15-0.01-0.3-0.03-0.45c0.02-0.15,0.03-0.3,0.03-0.45c0-0.15-0.01-0.3-0.03-0.45
				c0.02-0.15,0.03-0.3,0.03-0.45s-0.01-0.3-0.03-0.45c0.02-0.15,0.03-0.3,0.03-0.45c0-0.15-0.01-0.3-0.03-0.45
				c0.02-0.15,0.03-0.3,0.03-0.45c0-0.15-0.01-0.3-0.03-0.45c0.02-0.15,0.03-0.3,0.03-0.45s-0.01-0.3-0.03-0.45
				c0.02-0.15,0.03-0.3,0.03-0.45c0-0.15-0.01-0.3-0.03-0.45c0.02-0.15,0.03-0.3,0.03-0.45c0-0.15-0.01-0.3-0.03-0.45
				c0.02-0.15,0.03-0.3,0.03-0.45c0-0.15-0.01-0.3-0.03-0.45c0.02-0.15,0.03-0.3,0.03-0.45c0-0.15-0.01-0.3-0.03-0.45
				c0.02-0.15,0.03-0.3,0.03-0.45s-0.01-0.3-0.03-0.45c0.02-0.15,0.03-0.3,0.03-0.45s-0.01-0.3-0.03-0.45
				c0.02-0.15,0.03-0.3,0.03-0.45c0-0.15-0.01-0.3-0.03-0.45c0.02-0.15,0.03-0.3,0.03-0.45s-0.01-0.3-0.03-0.45
				c0.02-0.15,0.03-0.3,0.03-0.45s-0.01-0.3-0.03-0.45c0.02-0.15,0.03-0.3,0.03-0.45c0-0.15-0.01-0.3-0.03-0.45
				c0.02-0.15,0.03-0.3,0.03-0.45s-0.01-0.3-0.03-0.45c0.02-0.15,0.03-0.3,0.03-0.45s-0.01-0.3-0.03-0.45
				c0.02-0.15,0.03-0.3,0.03-0.45c0-0.15-0.01-0.3-0.03-0.45c0.02-0.15,0.03-0.3,0.03-0.45c0-0.15-0.01-0.3-0.03-0.45
				c0.02-0.15,0.03-0.3,0.03-0.45s-0.01-0.3-0.03-0.45c0.02-0.15,0.03-0.3,0.03-0.45s-0.01-0.3-0.03-0.45
				c0.02-0.15,0.03-0.3,0.03-0.45s-0.01-0.3-0.03-0.45c0.02-0.15,0.03-0.3,0.03-0.45s-0.01-0.3-0.03-0.45
				c0.02-0.15,0.03-0.3,0.03-0.45c0-0.15-0.01-0.3-0.03-0.45c0.02-0.15,0.03-0.3,0.03-0.45s-0.01-0.3-0.03-0.45
				c0.02-0.15,0.03-0.3,0.03-0.45s-0.01-0.3-0.03-0.45c0.02-0.15,0.03-0.3,0.03-0.45C838.12,1490.59,838.11,1490.44,838.09,1490.29z
				"/>
			<ellipse class="st16" cx="743.98" cy="1489.84" rx="94.14" ry="17.85"/>
			<ellipse class="st17" cx="743.98" cy="1487.38" rx="74.24" ry="9.53"/>
		</g>
		<g>
			<path class="st12" d="M838.09,1454.86c0.02-0.15,0.03-0.3,0.03-0.45c0-9.86-42.15-17.85-94.14-17.85s-94.14,7.99-94.14,17.85
				c0,0.15,0.01,0.3,0.03,0.45c-0.02,0.15-0.03,0.3-0.03,0.45c0,0.15,0.01,0.3,0.03,0.45c-0.02,0.15-0.03,0.3-0.03,0.45
				c0,0.15,0.01,0.3,0.03,0.45c-0.02,0.15-0.03,0.3-0.03,0.45s0.01,0.3,0.03,0.45c-0.02,0.15-0.03,0.3-0.03,0.45s0.01,0.3,0.03,0.45
				c-0.02,0.15-0.03,0.3-0.03,0.45s0.01,0.3,0.03,0.45c-0.02,0.15-0.03,0.3-0.03,0.45s0.01,0.3,0.03,0.45
				c-0.02,0.15-0.03,0.3-0.03,0.45c0,0.15,0.01,0.3,0.03,0.45c-0.02,0.15-0.03,0.3-0.03,0.45s0.01,0.3,0.03,0.45
				c-0.02,0.15-0.03,0.3-0.03,0.45s0.01,0.3,0.03,0.45c-0.02,0.15-0.03,0.3-0.03,0.45c0,0.15,0.01,0.3,0.03,0.45
				c-0.02,0.15-0.03,0.3-0.03,0.45s0.01,0.3,0.03,0.45c-0.02,0.15-0.03,0.3-0.03,0.45s0.01,0.3,0.03,0.45
				c-0.02,0.15-0.03,0.3-0.03,0.45c0,0.15,0.01,0.3,0.03,0.45c-0.02,0.15-0.03,0.3-0.03,0.45s0.01,0.3,0.03,0.45
				c-0.02,0.15-0.03,0.3-0.03,0.45c0,0.15,0.01,0.3,0.03,0.45c-0.02,0.15-0.03,0.3-0.03,0.45c0,0.15,0.01,0.3,0.03,0.45
				c-0.02,0.15-0.03,0.3-0.03,0.45s0.01,0.3,0.03,0.45c-0.02,0.15-0.03,0.3-0.03,0.45c0,0.15,0.01,0.3,0.03,0.45
				c-0.02,0.15-0.03,0.3-0.03,0.45c0,0.15,0.01,0.3,0.03,0.45c-0.02,0.15-0.03,0.3-0.03,0.45s0.01,0.3,0.03,0.45
				c-0.02,0.15-0.03,0.3-0.03,0.45c0,0.15,0.01,0.3,0.03,0.45c-0.02,0.15-0.03,0.3-0.03,0.45c0,0.15,0.01,0.3,0.03,0.45
				c-0.02,0.15-0.03,0.3-0.03,0.45s0.01,0.3,0.03,0.45c-0.02,0.15-0.03,0.3-0.03,0.45c0,0.15,0.01,0.3,0.03,0.45
				c-0.02,0.15-0.03,0.3-0.03,0.45c0,0.15,0.01,0.3,0.03,0.45c-0.02,0.15-0.03,0.3-0.03,0.45c0,0.15,0.01,0.3,0.03,0.45
				c-0.02,0.15-0.03,0.3-0.03,0.45c0,0.15,0.01,0.3,0.03,0.45c-0.02,0.15-0.03,0.3-0.03,0.45s0.01,0.3,0.03,0.45
				c-0.02,0.15-0.03,0.3-0.03,0.45s0.01,0.3,0.03,0.45c-0.02,0.15-0.03,0.3-0.03,0.45c0,0.15,0.01,0.3,0.03,0.45
				c-0.02,0.15-0.03,0.3-0.03,0.45c0,9.86,42.15,17.85,94.14,17.85s94.14-7.99,94.14-17.85c0-0.15-0.01-0.3-0.03-0.45
				c0.02-0.15,0.03-0.3,0.03-0.45c0-0.15-0.01-0.3-0.03-0.45c0.02-0.15,0.03-0.3,0.03-0.45s-0.01-0.3-0.03-0.45
				c0.02-0.15,0.03-0.3,0.03-0.45s-0.01-0.3-0.03-0.45c0.02-0.15,0.03-0.3,0.03-0.45c0-0.15-0.01-0.3-0.03-0.45
				c0.02-0.15,0.03-0.3,0.03-0.45c0-0.15-0.01-0.3-0.03-0.45c0.02-0.15,0.03-0.3,0.03-0.45c0-0.15-0.01-0.3-0.03-0.45
				c0.02-0.15,0.03-0.3,0.03-0.45c0-0.15-0.01-0.3-0.03-0.45c0.02-0.15,0.03-0.3,0.03-0.45s-0.01-0.3-0.03-0.45
				c0.02-0.15,0.03-0.3,0.03-0.45c0-0.15-0.01-0.3-0.03-0.45c0.02-0.15,0.03-0.3,0.03-0.45c0-0.15-0.01-0.3-0.03-0.45
				c0.02-0.15,0.03-0.3,0.03-0.45s-0.01-0.3-0.03-0.45c0.02-0.15,0.03-0.3,0.03-0.45c0-0.15-0.01-0.3-0.03-0.45
				c0.02-0.15,0.03-0.3,0.03-0.45c0-0.15-0.01-0.3-0.03-0.45c0.02-0.15,0.03-0.3,0.03-0.45s-0.01-0.3-0.03-0.45
				c0.02-0.15,0.03-0.3,0.03-0.45c0-0.15-0.01-0.3-0.03-0.45c0.02-0.15,0.03-0.3,0.03-0.45c0-0.15-0.01-0.3-0.03-0.45
				c0.02-0.15,0.03-0.3,0.03-0.45s-0.01-0.3-0.03-0.45c0.02-0.15,0.03-0.3,0.03-0.45c0-0.15-0.01-0.3-0.03-0.45
				c0.02-0.15,0.03-0.3,0.03-0.45s-0.01-0.3-0.03-0.45c0.02-0.15,0.03-0.3,0.03-0.45s-0.01-0.3-0.03-0.45
				c0.02-0.15,0.03-0.3,0.03-0.45c0-0.15-0.01-0.3-0.03-0.45c0.02-0.15,0.03-0.3,0.03-0.45s-0.01-0.3-0.03-0.45
				c0.02-0.15,0.03-0.3,0.03-0.45s-0.01-0.3-0.03-0.45c0.02-0.15,0.03-0.3,0.03-0.45c0-0.15-0.01-0.3-0.03-0.45
				c0.02-0.15,0.03-0.3,0.03-0.45s-0.01-0.3-0.03-0.45c0.02-0.15,0.03-0.3,0.03-0.45s-0.01-0.3-0.03-0.45
				c0.02-0.15,0.03-0.3,0.03-0.45s-0.01-0.3-0.03-0.45c0.02-0.15,0.03-0.3,0.03-0.45s-0.01-0.3-0.03-0.45
				c0.02-0.15,0.03-0.3,0.03-0.45c0-0.15-0.01-0.3-0.03-0.45c0.02-0.15,0.03-0.3,0.03-0.45
				C838.12,1455.16,838.11,1455.01,838.09,1454.86z"/>
			<ellipse class="st16" cx="743.98" cy="1454.41" rx="94.14" ry="17.85"/>
			<ellipse class="st17" cx="743.98" cy="1451.96" rx="74.24" ry="9.53"/>
		</g>
		<g>
			<path class="st12" d="M838.09,1419.44c0.02-0.15,0.03-0.3,0.03-0.45c0-9.86-42.15-17.85-94.14-17.85s-94.14,7.99-94.14,17.85
				c0,0.15,0.01,0.3,0.03,0.45c-0.02,0.15-0.03,0.3-0.03,0.45c0,0.15,0.01,0.3,0.03,0.45c-0.02,0.15-0.03,0.3-0.03,0.45
				s0.01,0.3,0.03,0.45c-0.02,0.15-0.03,0.3-0.03,0.45s0.01,0.3,0.03,0.45c-0.02,0.15-0.03,0.3-0.03,0.45c0,0.15,0.01,0.3,0.03,0.45
				c-0.02,0.15-0.03,0.3-0.03,0.45s0.01,0.3,0.03,0.45c-0.02,0.15-0.03,0.3-0.03,0.45s0.01,0.3,0.03,0.45
				c-0.02,0.15-0.03,0.3-0.03,0.45c0,0.15,0.01,0.3,0.03,0.45c-0.02,0.15-0.03,0.3-0.03,0.45c0,0.15,0.01,0.3,0.03,0.45
				c-0.02,0.15-0.03,0.3-0.03,0.45s0.01,0.3,0.03,0.45c-0.02,0.15-0.03,0.3-0.03,0.45s0.01,0.3,0.03,0.45
				c-0.02,0.15-0.03,0.3-0.03,0.45s0.01,0.3,0.03,0.45c-0.02,0.15-0.03,0.3-0.03,0.45s0.01,0.3,0.03,0.45
				c-0.02,0.15-0.03,0.3-0.03,0.45c0,0.15,0.01,0.3,0.03,0.45c-0.02,0.15-0.03,0.3-0.03,0.45s0.01,0.3,0.03,0.45
				c-0.02,0.15-0.03,0.3-0.03,0.45s0.01,0.3,0.03,0.45c-0.02,0.15-0.03,0.3-0.03,0.45c0,0.15,0.01,0.3,0.03,0.45
				c-0.02,0.15-0.03,0.3-0.03,0.45s0.01,0.3,0.03,0.45c-0.02,0.15-0.03,0.3-0.03,0.45c0,0.15,0.01,0.3,0.03,0.45
				c-0.02,0.15-0.03,0.3-0.03,0.45c0,0.15,0.01,0.3,0.03,0.45c-0.02,0.15-0.03,0.3-0.03,0.45s0.01,0.3,0.03,0.45
				c-0.02,0.15-0.03,0.3-0.03,0.45s0.01,0.3,0.03,0.45c-0.02,0.15-0.03,0.3-0.03,0.45c0,0.15,0.01,0.3,0.03,0.45
				c-0.02,0.15-0.03,0.3-0.03,0.45s0.01,0.3,0.03,0.45c-0.02,0.15-0.03,0.3-0.03,0.45c0,0.15,0.01,0.3,0.03,0.45
				c-0.02,0.15-0.03,0.3-0.03,0.45c0,0.15,0.01,0.3,0.03,0.45c-0.02,0.15-0.03,0.3-0.03,0.45s0.01,0.3,0.03,0.45
				c-0.02,0.15-0.03,0.3-0.03,0.45c0,0.15,0.01,0.3,0.03,0.45c-0.02,0.15-0.03,0.3-0.03,0.45c0,0.15,0.01,0.3,0.03,0.45
				c-0.02,0.15-0.03,0.3-0.03,0.45s0.01,0.3,0.03,0.45c-0.02,0.15-0.03,0.3-0.03,0.45c0,0.15,0.01,0.3,0.03,0.45
				c-0.02,0.15-0.03,0.3-0.03,0.45c0,9.86,42.15,17.85,94.14,17.85s94.14-7.99,94.14-17.85c0-0.15-0.01-0.3-0.03-0.45
				c0.02-0.15,0.03-0.3,0.03-0.45c0-0.15-0.01-0.3-0.03-0.45c0.02-0.15,0.03-0.3,0.03-0.45s-0.01-0.3-0.03-0.45
				c0.02-0.15,0.03-0.3,0.03-0.45c0-0.15-0.01-0.3-0.03-0.45c0.02-0.15,0.03-0.3,0.03-0.45c0-0.15-0.01-0.3-0.03-0.45
				c0.02-0.15,0.03-0.3,0.03-0.45s-0.01-0.3-0.03-0.45c0.02-0.15,0.03-0.3,0.03-0.45c0-0.15-0.01-0.3-0.03-0.45
				c0.02-0.15,0.03-0.3,0.03-0.45c0-0.15-0.01-0.3-0.03-0.45c0.02-0.15,0.03-0.3,0.03-0.45s-0.01-0.3-0.03-0.45
				c0.02-0.15,0.03-0.3,0.03-0.45c0-0.15-0.01-0.3-0.03-0.45c0.02-0.15,0.03-0.3,0.03-0.45s-0.01-0.3-0.03-0.45
				c0.02-0.15,0.03-0.3,0.03-0.45s-0.01-0.3-0.03-0.45c0.02-0.15,0.03-0.3,0.03-0.45c0-0.15-0.01-0.3-0.03-0.45
				c0.02-0.15,0.03-0.3,0.03-0.45c0-0.15-0.01-0.3-0.03-0.45c0.02-0.15,0.03-0.3,0.03-0.45s-0.01-0.3-0.03-0.45
				c0.02-0.15,0.03-0.3,0.03-0.45c0-0.15-0.01-0.3-0.03-0.45c0.02-0.15,0.03-0.3,0.03-0.45s-0.01-0.3-0.03-0.45
				c0.02-0.15,0.03-0.3,0.03-0.45s-0.01-0.3-0.03-0.45c0.02-0.15,0.03-0.3,0.03-0.45c0-0.15-0.01-0.3-0.03-0.45
				c0.02-0.15,0.03-0.3,0.03-0.45s-0.01-0.3-0.03-0.45c0.02-0.15,0.03-0.3,0.03-0.45s-0.01-0.3-0.03-0.45
				c0.02-0.15,0.03-0.3,0.03-0.45s-0.01-0.3-0.03-0.45c0.02-0.15,0.03-0.3,0.03-0.45s-0.01-0.3-0.03-0.45
				c0.02-0.15,0.03-0.3,0.03-0.45c0-0.15-0.01-0.3-0.03-0.45c0.02-0.15,0.03-0.3,0.03-0.45c0-0.15-0.01-0.3-0.03-0.45
				c0.02-0.15,0.03-0.3,0.03-0.45s-0.01-0.3-0.03-0.45c0.02-0.15,0.03-0.3,0.03-0.45s-0.01-0.3-0.03-0.45
				c0.02-0.15,0.03-0.3,0.03-0.45c0-0.15-0.01-0.3-0.03-0.45c0.02-0.15,0.03-0.3,0.03-0.45s-0.01-0.3-0.03-0.45
				c0.02-0.15,0.03-0.3,0.03-0.45s-0.01-0.3-0.03-0.45c0.02-0.15,0.03-0.3,0.03-0.45C838.12,1419.74,838.11,1419.59,838.09,1419.44z
				"/>
			<ellipse class="st16" cx="743.98" cy="1418.99" rx="94.14" ry="17.85"/>
			<ellipse class="st17" cx="743.98" cy="1416.54" rx="74.24" ry="9.53"/>
		</g>
		<g>
			<path class="st12" d="M838.09,1384.01c0.02-0.15,0.03-0.3,0.03-0.45c0-9.86-42.15-17.85-94.14-17.85s-94.14,7.99-94.14,17.85
				c0,0.15,0.01,0.3,0.03,0.45c-0.02,0.15-0.03,0.3-0.03,0.45c0,0.15,0.01,0.3,0.03,0.45c-0.02,0.15-0.03,0.3-0.03,0.45
				s0.01,0.3,0.03,0.45c-0.02,0.15-0.03,0.3-0.03,0.45s0.01,0.3,0.03,0.45c-0.02,0.15-0.03,0.3-0.03,0.45c0,0.15,0.01,0.3,0.03,0.45
				c-0.02,0.15-0.03,0.3-0.03,0.45s0.01,0.3,0.03,0.45c-0.02,0.15-0.03,0.3-0.03,0.45s0.01,0.3,0.03,0.45
				c-0.02,0.15-0.03,0.3-0.03,0.45s0.01,0.3,0.03,0.45c-0.02,0.15-0.03,0.3-0.03,0.45s0.01,0.3,0.03,0.45
				c-0.02,0.15-0.03,0.3-0.03,0.45c0,0.15,0.01,0.3,0.03,0.45c-0.02,0.15-0.03,0.3-0.03,0.45c0,0.15,0.01,0.3,0.03,0.45
				c-0.02,0.15-0.03,0.3-0.03,0.45s0.01,0.3,0.03,0.45c-0.02,0.15-0.03,0.3-0.03,0.45s0.01,0.3,0.03,0.45
				c-0.02,0.15-0.03,0.3-0.03,0.45c0,0.15,0.01,0.3,0.03,0.45c-0.02,0.15-0.03,0.3-0.03,0.45s0.01,0.3,0.03,0.45
				c-0.02,0.15-0.03,0.3-0.03,0.45s0.01,0.3,0.03,0.45c-0.02,0.15-0.03,0.3-0.03,0.45c0,0.15,0.01,0.3,0.03,0.45
				c-0.02,0.15-0.03,0.3-0.03,0.45s0.01,0.3,0.03,0.45c-0.02,0.15-0.03,0.3-0.03,0.45s0.01,0.3,0.03,0.45
				c-0.02,0.15-0.03,0.3-0.03,0.45c0,0.15,0.01,0.3,0.03,0.45c-0.02,0.15-0.03,0.3-0.03,0.45c0,0.15,0.01,0.3,0.03,0.45
				c-0.02,0.15-0.03,0.3-0.03,0.45c0,0.15,0.01,0.3,0.03,0.45c-0.02,0.15-0.03,0.3-0.03,0.45c0,0.15,0.01,0.3,0.03,0.45
				c-0.02,0.15-0.03,0.3-0.03,0.45s0.01,0.3,0.03,0.45c-0.02,0.15-0.03,0.3-0.03,0.45c0,0.15,0.01,0.3,0.03,0.45
				c-0.02,0.15-0.03,0.3-0.03,0.45c0,0.15,0.01,0.3,0.03,0.45c-0.02,0.15-0.03,0.3-0.03,0.45s0.01,0.3,0.03,0.45
				c-0.02,0.15-0.03,0.3-0.03,0.45c0,0.15,0.01,0.3,0.03,0.45c-0.02,0.15-0.03,0.3-0.03,0.45c0,0.15,0.01,0.3,0.03,0.45
				c-0.02,0.15-0.03,0.3-0.03,0.45s0.01,0.3,0.03,0.45c-0.02,0.15-0.03,0.3-0.03,0.45c0,0.15,0.01,0.3,0.03,0.45
				c-0.02,0.15-0.03,0.3-0.03,0.45c0,9.86,42.15,17.85,94.14,17.85s94.14-7.99,94.14-17.85c0-0.15-0.01-0.3-0.03-0.45
				c0.02-0.15,0.03-0.3,0.03-0.45c0-0.15-0.01-0.3-0.03-0.45c0.02-0.15,0.03-0.3,0.03-0.45s-0.01-0.3-0.03-0.45
				c0.02-0.15,0.03-0.3,0.03-0.45c0-0.15-0.01-0.3-0.03-0.45c0.02-0.15,0.03-0.3,0.03-0.45c0-0.15-0.01-0.3-0.03-0.45
				c0.02-0.15,0.03-0.3,0.03-0.45s-0.01-0.3-0.03-0.45c0.02-0.15,0.03-0.3,0.03-0.45c0-0.15-0.01-0.3-0.03-0.45
				c0.02-0.15,0.03-0.3,0.03-0.45c0-0.15-0.01-0.3-0.03-0.45c0.02-0.15,0.03-0.3,0.03-0.45s-0.01-0.3-0.03-0.45
				c0.02-0.15,0.03-0.3,0.03-0.45c0-0.15-0.01-0.3-0.03-0.45c0.02-0.15,0.03-0.3,0.03-0.45c0-0.15-0.01-0.3-0.03-0.45
				c0.02-0.15,0.03-0.3,0.03-0.45c0-0.15-0.01-0.3-0.03-0.45c0.02-0.15,0.03-0.3,0.03-0.45c0-0.15-0.01-0.3-0.03-0.45
				c0.02-0.15,0.03-0.3,0.03-0.45s-0.01-0.3-0.03-0.45c0.02-0.15,0.03-0.3,0.03-0.45s-0.01-0.3-0.03-0.45
				c0.02-0.15,0.03-0.3,0.03-0.45c0-0.15-0.01-0.3-0.03-0.45c0.02-0.15,0.03-0.3,0.03-0.45s-0.01-0.3-0.03-0.45
				c0.02-0.15,0.03-0.3,0.03-0.45s-0.01-0.3-0.03-0.45c0.02-0.15,0.03-0.3,0.03-0.45c0-0.15-0.01-0.3-0.03-0.45
				c0.02-0.15,0.03-0.3,0.03-0.45s-0.01-0.3-0.03-0.45c0.02-0.15,0.03-0.3,0.03-0.45s-0.01-0.3-0.03-0.45
				c0.02-0.15,0.03-0.3,0.03-0.45c0-0.15-0.01-0.3-0.03-0.45c0.02-0.15,0.03-0.3,0.03-0.45c0-0.15-0.01-0.3-0.03-0.45
				c0.02-0.15,0.03-0.3,0.03-0.45s-0.01-0.3-0.03-0.45c0.02-0.15,0.03-0.3,0.03-0.45s-0.01-0.3-0.03-0.45
				c0.02-0.15,0.03-0.3,0.03-0.45s-0.01-0.3-0.03-0.45c0.02-0.15,0.03-0.3,0.03-0.45s-0.01-0.3-0.03-0.45
				c0.02-0.15,0.03-0.3,0.03-0.45c0-0.15-0.01-0.3-0.03-0.45c0.02-0.15,0.03-0.3,0.03-0.45s-0.01-0.3-0.03-0.45
				c0.02-0.15,0.03-0.3,0.03-0.45s-0.01-0.3-0.03-0.45c0.02-0.15,0.03-0.3,0.03-0.45C838.12,1384.31,838.11,1384.16,838.09,1384.01z
				"/>
			<ellipse class="st16" cx="743.98" cy="1383.56" rx="94.14" ry="17.85"/>
			<ellipse class="st12" cx="743.98" cy="1381.11" rx="74.24" ry="9.53"/>
		</g>
		<g>
			<path class="st12" d="M743.95,1557.26c0.02-0.15,0.03-0.3,0.03-0.45c0-9.86-42.15-17.85-94.14-17.85s-94.14,7.99-94.14,17.85
				c0,0.15,0.01,0.3,0.03,0.45c-0.02,0.15-0.03,0.3-0.03,0.45c0,0.15,0.01,0.3,0.03,0.45c-0.02,0.15-0.03,0.3-0.03,0.45
				c0,0.15,0.01,0.3,0.03,0.45c-0.02,0.15-0.03,0.3-0.03,0.45s0.01,0.3,0.03,0.45c-0.02,0.15-0.03,0.3-0.03,0.45
				c0,0.15,0.01,0.3,0.03,0.45c-0.02,0.15-0.03,0.3-0.03,0.45s0.01,0.3,0.03,0.45c-0.02,0.15-0.03,0.3-0.03,0.45s0.01,0.3,0.03,0.45
				c-0.02,0.15-0.03,0.3-0.03,0.45c0,0.15,0.01,0.3,0.03,0.45c-0.02,0.15-0.03,0.3-0.03,0.45s0.01,0.3,0.03,0.45
				c-0.02,0.15-0.03,0.3-0.03,0.45s0.01,0.3,0.03,0.45c-0.02,0.15-0.03,0.3-0.03,0.45c0,0.15,0.01,0.3,0.03,0.45
				c-0.02,0.15-0.03,0.3-0.03,0.45s0.01,0.3,0.03,0.45c-0.02,0.15-0.03,0.3-0.03,0.45s0.01,0.3,0.03,0.45
				c-0.02,0.15-0.03,0.3-0.03,0.45s0.01,0.3,0.03,0.45c-0.02,0.15-0.03,0.3-0.03,0.45s0.01,0.3,0.03,0.45
				c-0.02,0.15-0.03,0.3-0.03,0.45c0,0.15,0.01,0.3,0.03,0.45c-0.02,0.15-0.03,0.3-0.03,0.45c0,0.15,0.01,0.3,0.03,0.45
				c-0.02,0.15-0.03,0.3-0.03,0.45s0.01,0.3,0.03,0.45c-0.02,0.15-0.03,0.3-0.03,0.45c0,0.15,0.01,0.3,0.03,0.45
				c-0.02,0.15-0.03,0.3-0.03,0.45c0,0.15,0.01,0.3,0.03,0.45c-0.02,0.15-0.03,0.3-0.03,0.45s0.01,0.3,0.03,0.45
				c-0.02,0.15-0.03,0.3-0.03,0.45c0,0.15,0.01,0.3,0.03,0.45c-0.02,0.15-0.03,0.3-0.03,0.45c0,0.15,0.01,0.3,0.03,0.45
				c-0.02,0.15-0.03,0.3-0.03,0.45s0.01,0.3,0.03,0.45c-0.02,0.15-0.03,0.3-0.03,0.45s0.01,0.3,0.03,0.45
				c-0.02,0.15-0.03,0.3-0.03,0.45c0,0.15,0.01,0.3,0.03,0.45c-0.02,0.15-0.03,0.3-0.03,0.45c0,0.15,0.01,0.3,0.03,0.45
				c-0.02,0.15-0.03,0.3-0.03,0.45c0,0.15,0.01,0.3,0.03,0.45c-0.02,0.15-0.03,0.3-0.03,0.45c0,0.15,0.01,0.3,0.03,0.45
				c-0.02,0.15-0.03,0.3-0.03,0.45s0.01,0.3,0.03,0.45c-0.02,0.15-0.03,0.3-0.03,0.45c0,0.15,0.01,0.3,0.03,0.45
				c-0.02,0.15-0.03,0.3-0.03,0.45c0,9.86,42.15,17.85,94.14,17.85s94.14-7.99,94.14-17.85c0-0.15-0.01-0.3-0.03-0.45
				c0.02-0.15,0.03-0.3,0.03-0.45c0-0.15-0.01-0.3-0.03-0.45c0.02-0.15,0.03-0.3,0.03-0.45s-0.01-0.3-0.03-0.45
				c0.02-0.15,0.03-0.3,0.03-0.45c0-0.15-0.01-0.3-0.03-0.45c0.02-0.15,0.03-0.3,0.03-0.45c0-0.15-0.01-0.3-0.03-0.45
				c0.02-0.15,0.03-0.3,0.03-0.45c0-0.15-0.01-0.3-0.03-0.45c0.02-0.15,0.03-0.3,0.03-0.45c0-0.15-0.01-0.3-0.03-0.45
				c0.02-0.15,0.03-0.3,0.03-0.45s-0.01-0.3-0.03-0.45c0.02-0.15,0.03-0.3,0.03-0.45s-0.01-0.3-0.03-0.45
				c0.02-0.15,0.03-0.3,0.03-0.45c0-0.15-0.01-0.3-0.03-0.45c0.02-0.15,0.03-0.3,0.03-0.45c0-0.15-0.01-0.3-0.03-0.45
				c0.02-0.15,0.03-0.3,0.03-0.45s-0.01-0.3-0.03-0.45c0.02-0.15,0.03-0.3,0.03-0.45c0-0.15-0.01-0.3-0.03-0.45
				c0.02-0.15,0.03-0.3,0.03-0.45c0-0.15-0.01-0.3-0.03-0.45c0.02-0.15,0.03-0.3,0.03-0.45s-0.01-0.3-0.03-0.45
				c0.02-0.15,0.03-0.3,0.03-0.45c0-0.15-0.01-0.3-0.03-0.45c0.02-0.15,0.03-0.3,0.03-0.45c0-0.15-0.01-0.3-0.03-0.45
				c0.02-0.15,0.03-0.3,0.03-0.45s-0.01-0.3-0.03-0.45c0.02-0.15,0.03-0.3,0.03-0.45s-0.01-0.3-0.03-0.45
				c0.02-0.15,0.03-0.3,0.03-0.45s-0.01-0.3-0.03-0.45c0.02-0.15,0.03-0.3,0.03-0.45s-0.01-0.3-0.03-0.45
				c0.02-0.15,0.03-0.3,0.03-0.45c0-0.15-0.01-0.3-0.03-0.45c0.02-0.15,0.03-0.3,0.03-0.45s-0.01-0.3-0.03-0.45
				c0.02-0.15,0.03-0.3,0.03-0.45s-0.01-0.3-0.03-0.45c0.02-0.15,0.03-0.3,0.03-0.45c0-0.15-0.01-0.3-0.03-0.45
				c0.02-0.15,0.03-0.3,0.03-0.45s-0.01-0.3-0.03-0.45c0.02-0.15,0.03-0.3,0.03-0.45s-0.01-0.3-0.03-0.45
				c0.02-0.15,0.03-0.3,0.03-0.45c0-0.15-0.01-0.3-0.03-0.45c0.02-0.15,0.03-0.3,0.03-0.45s-0.01-0.3-0.03-0.45
				c0.02-0.15,0.03-0.3,0.03-0.45c0-0.15-0.01-0.3-0.03-0.45c0.02-0.15,0.03-0.3,0.03-0.45
				C743.98,1557.56,743.97,1557.41,743.95,1557.26z"/>
			<ellipse class="st16" cx="649.84" cy="1556.81" rx="94.14" ry="17.85"/>
			<ellipse class="st17" cx="649.84" cy="1554.35" rx="74.24" ry="9.53"/>
		</g>
		<g>
			<path class="st12" d="M743.95,1521.83c0.02-0.15,0.03-0.3,0.03-0.45c0-9.86-42.15-17.85-94.14-17.85s-94.14,7.99-94.14,17.85
				c0,0.15,0.01,0.3,0.03,0.45c-0.02,0.15-0.03,0.3-0.03,0.45c0,0.15,0.01,0.3,0.03,0.45c-0.02,0.15-0.03,0.3-0.03,0.45
				s0.01,0.3,0.03,0.45c-0.02,0.15-0.03,0.3-0.03,0.45s0.01,0.3,0.03,0.45c-0.02,0.15-0.03,0.3-0.03,0.45c0,0.15,0.01,0.3,0.03,0.45
				c-0.02,0.15-0.03,0.3-0.03,0.45s0.01,0.3,0.03,0.45c-0.02,0.15-0.03,0.3-0.03,0.45s0.01,0.3,0.03,0.45
				c-0.02,0.15-0.03,0.3-0.03,0.45c0,0.15,0.01,0.3,0.03,0.45c-0.02,0.15-0.03,0.3-0.03,0.45c0,0.15,0.01,0.3,0.03,0.45
				c-0.02,0.15-0.03,0.3-0.03,0.45s0.01,0.3,0.03,0.45c-0.02,0.15-0.03,0.3-0.03,0.45c0,0.15,0.01,0.3,0.03,0.45
				c-0.02,0.15-0.03,0.3-0.03,0.45s0.01,0.3,0.03,0.45c-0.02,0.15-0.03,0.3-0.03,0.45s0.01,0.3,0.03,0.45
				c-0.02,0.15-0.03,0.3-0.03,0.45c0,0.15,0.01,0.3,0.03,0.45c-0.02,0.15-0.03,0.3-0.03,0.45s0.01,0.3,0.03,0.45
				c-0.02,0.15-0.03,0.3-0.03,0.45s0.01,0.3,0.03,0.45c-0.02,0.15-0.03,0.3-0.03,0.45c0,0.15,0.01,0.3,0.03,0.45
				c-0.02,0.15-0.03,0.3-0.03,0.45s0.01,0.3,0.03,0.45c-0.02,0.15-0.03,0.3-0.03,0.45c0,0.15,0.01,0.3,0.03,0.45
				c-0.02,0.15-0.03,0.3-0.03,0.45s0.01,0.3,0.03,0.45c-0.02,0.15-0.03,0.3-0.03,0.45s0.01,0.3,0.03,0.45
				c-0.02,0.15-0.03,0.3-0.03,0.45c0,0.15,0.01,0.3,0.03,0.45c-0.02,0.15-0.03,0.3-0.03,0.45c0,0.15,0.01,0.3,0.03,0.45
				c-0.02,0.15-0.03,0.3-0.03,0.45s0.01,0.3,0.03,0.45c-0.02,0.15-0.03,0.3-0.03,0.45c0,0.15,0.01,0.3,0.03,0.45
				c-0.02,0.15-0.03,0.3-0.03,0.45c0,0.15,0.01,0.3,0.03,0.45c-0.02,0.15-0.03,0.3-0.03,0.45s0.01,0.3,0.03,0.45
				c-0.02,0.15-0.03,0.3-0.03,0.45c0,0.15,0.01,0.3,0.03,0.45c-0.02,0.15-0.03,0.3-0.03,0.45c0,0.15,0.01,0.3,0.03,0.45
				c-0.02,0.15-0.03,0.3-0.03,0.45s0.01,0.3,0.03,0.45c-0.02,0.15-0.03,0.3-0.03,0.45s0.01,0.3,0.03,0.45
				c-0.02,0.15-0.03,0.3-0.03,0.45c0,9.86,42.15,17.85,94.14,17.85s94.14-7.99,94.14-17.85c0-0.15-0.01-0.3-0.03-0.45
				c0.02-0.15,0.03-0.3,0.03-0.45s-0.01-0.3-0.03-0.45c0.02-0.15,0.03-0.3,0.03-0.45s-0.01-0.3-0.03-0.45
				c0.02-0.15,0.03-0.3,0.03-0.45c0-0.15-0.01-0.3-0.03-0.45c0.02-0.15,0.03-0.3,0.03-0.45c0-0.15-0.01-0.3-0.03-0.45
				c0.02-0.15,0.03-0.3,0.03-0.45s-0.01-0.3-0.03-0.45c0.02-0.15,0.03-0.3,0.03-0.45c0-0.15-0.01-0.3-0.03-0.45
				c0.02-0.15,0.03-0.3,0.03-0.45c0-0.15-0.01-0.3-0.03-0.45c0.02-0.15,0.03-0.3,0.03-0.45s-0.01-0.3-0.03-0.45
				c0.02-0.15,0.03-0.3,0.03-0.45c0-0.15-0.01-0.3-0.03-0.45c0.02-0.15,0.03-0.3,0.03-0.45c0-0.15-0.01-0.3-0.03-0.45
				c0.02-0.15,0.03-0.3,0.03-0.45s-0.01-0.3-0.03-0.45c0.02-0.15,0.03-0.3,0.03-0.45s-0.01-0.3-0.03-0.45
				c0.02-0.15,0.03-0.3,0.03-0.45c0-0.15-0.01-0.3-0.03-0.45c0.02-0.15,0.03-0.3,0.03-0.45s-0.01-0.3-0.03-0.45
				c0.02-0.15,0.03-0.3,0.03-0.45c0-0.15-0.01-0.3-0.03-0.45c0.02-0.15,0.03-0.3,0.03-0.45s-0.01-0.3-0.03-0.45
				c0.02-0.15,0.03-0.3,0.03-0.45s-0.01-0.3-0.03-0.45c0.02-0.15,0.03-0.3,0.03-0.45c0-0.15-0.01-0.3-0.03-0.45
				c0.02-0.15,0.03-0.3,0.03-0.45s-0.01-0.3-0.03-0.45c0.02-0.15,0.03-0.3,0.03-0.45s-0.01-0.3-0.03-0.45
				c0.02-0.15,0.03-0.3,0.03-0.45c0-0.15-0.01-0.3-0.03-0.45c0.02-0.15,0.03-0.3,0.03-0.45s-0.01-0.3-0.03-0.45
				c0.02-0.15,0.03-0.3,0.03-0.45c0-0.15-0.01-0.3-0.03-0.45c0.02-0.15,0.03-0.3,0.03-0.45c0-0.15-0.01-0.3-0.03-0.45
				c0.02-0.15,0.03-0.3,0.03-0.45s-0.01-0.3-0.03-0.45c0.02-0.15,0.03-0.3,0.03-0.45s-0.01-0.3-0.03-0.45
				c0.02-0.15,0.03-0.3,0.03-0.45c0-0.15-0.01-0.3-0.03-0.45c0.02-0.15,0.03-0.3,0.03-0.45s-0.01-0.3-0.03-0.45
				c0.02-0.15,0.03-0.3,0.03-0.45s-0.01-0.3-0.03-0.45c0.02-0.15,0.03-0.3,0.03-0.45C743.98,1522.13,743.97,1521.98,743.95,1521.83z
				"/>
			<ellipse class="st16" cx="649.84" cy="1521.38" rx="94.14" ry="17.85"/>
			<ellipse class="st17" cx="649.84" cy="1518.93" rx="74.24" ry="9.53"/>
		</g>
		<g>
			<path class="st12" d="M743.95,1486.41c0.02-0.15,0.03-0.3,0.03-0.45c0-9.86-42.15-17.85-94.14-17.85s-94.14,7.99-94.14,17.85
				c0,0.15,0.01,0.3,0.03,0.45c-0.02,0.15-0.03,0.3-0.03,0.45c0,0.15,0.01,0.3,0.03,0.45c-0.02,0.15-0.03,0.3-0.03,0.45
				s0.01,0.3,0.03,0.45c-0.02,0.15-0.03,0.3-0.03,0.45c0,0.15,0.01,0.3,0.03,0.45c-0.02,0.15-0.03,0.3-0.03,0.45
				c0,0.15,0.01,0.3,0.03,0.45c-0.02,0.15-0.03,0.3-0.03,0.45s0.01,0.3,0.03,0.45c-0.02,0.15-0.03,0.3-0.03,0.45s0.01,0.3,0.03,0.45
				c-0.02,0.15-0.03,0.3-0.03,0.45c0,0.15,0.01,0.3,0.03,0.45c-0.02,0.15-0.03,0.3-0.03,0.45s0.01,0.3,0.03,0.45
				c-0.02,0.15-0.03,0.3-0.03,0.45s0.01,0.3,0.03,0.45c-0.02,0.15-0.03,0.3-0.03,0.45c0,0.15,0.01,0.3,0.03,0.45
				c-0.02,0.15-0.03,0.3-0.03,0.45s0.01,0.3,0.03,0.45c-0.02,0.15-0.03,0.3-0.03,0.45s0.01,0.3,0.03,0.45
				c-0.02,0.15-0.03,0.3-0.03,0.45c0,0.15,0.01,0.3,0.03,0.45c-0.02,0.15-0.03,0.3-0.03,0.45c0,0.15,0.01,0.3,0.03,0.45
				c-0.02,0.15-0.03,0.3-0.03,0.45s0.01,0.3,0.03,0.45c-0.02,0.15-0.03,0.3-0.03,0.45s0.01,0.3,0.03,0.45
				c-0.02,0.15-0.03,0.3-0.03,0.45s0.01,0.3,0.03,0.45c-0.02,0.15-0.03,0.3-0.03,0.45c0,0.15,0.01,0.3,0.03,0.45
				c-0.02,0.15-0.03,0.3-0.03,0.45c0,0.15,0.01,0.3,0.03,0.45c-0.02,0.15-0.03,0.3-0.03,0.45s0.01,0.3,0.03,0.45
				c-0.02,0.15-0.03,0.3-0.03,0.45c0,0.15,0.01,0.3,0.03,0.45c-0.02,0.15-0.03,0.3-0.03,0.45c0,0.15,0.01,0.3,0.03,0.45
				c-0.02,0.15-0.03,0.3-0.03,0.45s0.01,0.3,0.03,0.45c-0.02,0.15-0.03,0.3-0.03,0.45c0,0.15,0.01,0.3,0.03,0.45
				c-0.02,0.15-0.03,0.3-0.03,0.45c0,0.15,0.01,0.3,0.03,0.45c-0.02,0.15-0.03,0.3-0.03,0.45s0.01,0.3,0.03,0.45
				c-0.02,0.15-0.03,0.3-0.03,0.45s0.01,0.3,0.03,0.45c-0.02,0.15-0.03,0.3-0.03,0.45c0,0.15,0.01,0.3,0.03,0.45
				c-0.02,0.15-0.03,0.3-0.03,0.45s0.01,0.3,0.03,0.45c-0.02,0.15-0.03,0.3-0.03,0.45c0,0.15,0.01,0.3,0.03,0.45
				c-0.02,0.15-0.03,0.3-0.03,0.45c0,9.86,42.15,17.85,94.14,17.85s94.14-7.99,94.14-17.85c0-0.15-0.01-0.3-0.03-0.45
				c0.02-0.15,0.03-0.3,0.03-0.45c0-0.15-0.01-0.3-0.03-0.45c0.02-0.15,0.03-0.3,0.03-0.45s-0.01-0.3-0.03-0.45
				c0.02-0.15,0.03-0.3,0.03-0.45c0-0.15-0.01-0.3-0.03-0.45c0.02-0.15,0.03-0.3,0.03-0.45s-0.01-0.3-0.03-0.45
				c0.02-0.15,0.03-0.3,0.03-0.45s-0.01-0.3-0.03-0.45c0.02-0.15,0.03-0.3,0.03-0.45c0-0.15-0.01-0.3-0.03-0.45
				c0.02-0.15,0.03-0.3,0.03-0.45c0-0.15-0.01-0.3-0.03-0.45c0.02-0.15,0.03-0.3,0.03-0.45s-0.01-0.3-0.03-0.45
				c0.02-0.15,0.03-0.3,0.03-0.45c0-0.15-0.01-0.3-0.03-0.45c0.02-0.15,0.03-0.3,0.03-0.45c0-0.15-0.01-0.3-0.03-0.45
				c0.02-0.15,0.03-0.3,0.03-0.45s-0.01-0.3-0.03-0.45c0.02-0.15,0.03-0.3,0.03-0.45c0-0.15-0.01-0.3-0.03-0.45
				c0.02-0.15,0.03-0.3,0.03-0.45c0-0.15-0.01-0.3-0.03-0.45c0.02-0.15,0.03-0.3,0.03-0.45s-0.01-0.3-0.03-0.45
				c0.02-0.15,0.03-0.3,0.03-0.45s-0.01-0.3-0.03-0.45c0.02-0.15,0.03-0.3,0.03-0.45s-0.01-0.3-0.03-0.45
				c0.02-0.15,0.03-0.3,0.03-0.45c0-0.15-0.01-0.3-0.03-0.45c0.02-0.15,0.03-0.3,0.03-0.45c0-0.15-0.01-0.3-0.03-0.45
				c0.02-0.15,0.03-0.3,0.03-0.45s-0.01-0.3-0.03-0.45c0.02-0.15,0.03-0.3,0.03-0.45s-0.01-0.3-0.03-0.45
				c0.02-0.15,0.03-0.3,0.03-0.45c0-0.15-0.01-0.3-0.03-0.45c0.02-0.15,0.03-0.3,0.03-0.45s-0.01-0.3-0.03-0.45
				c0.02-0.15,0.03-0.3,0.03-0.45s-0.01-0.3-0.03-0.45c0.02-0.15,0.03-0.3,0.03-0.45c0-0.15-0.01-0.3-0.03-0.45
				c0.02-0.15,0.03-0.3,0.03-0.45s-0.01-0.3-0.03-0.45c0.02-0.15,0.03-0.3,0.03-0.45s-0.01-0.3-0.03-0.45
				c0.02-0.15,0.03-0.3,0.03-0.45c0-0.15-0.01-0.3-0.03-0.45c0.02-0.15,0.03-0.3,0.03-0.45c0-0.15-0.01-0.3-0.03-0.45
				c0.02-0.15,0.03-0.3,0.03-0.45s-0.01-0.3-0.03-0.45c0.02-0.15,0.03-0.3,0.03-0.45C743.98,1486.71,743.97,1486.56,743.95,1486.41z
				"/>
			<ellipse class="st16" cx="649.84" cy="1485.96" rx="94.14" ry="17.85"/>
			<ellipse class="st12" cx="649.84" cy="1483.5" rx="74.24" ry="9.53"/>
		</g>
		<g>
			<path class="st12" d="M948.48,1557.26c0.02-0.15,0.03-0.3,0.03-0.45c0-9.86-42.15-17.85-94.14-17.85
				c-51.99,0-94.14,7.99-94.14,17.85c0,0.15,0.01,0.3,0.03,0.45c-0.02,0.15-0.03,0.3-0.03,0.45c0,0.15,0.01,0.3,0.03,0.45
				c-0.02,0.15-0.03,0.3-0.03,0.45c0,0.15,0.01,0.3,0.03,0.45c-0.02,0.15-0.03,0.3-0.03,0.45s0.01,0.3,0.03,0.45
				c-0.02,0.15-0.03,0.3-0.03,0.45c0,0.15,0.01,0.3,0.03,0.45c-0.02,0.15-0.03,0.3-0.03,0.45s0.01,0.3,0.03,0.45
				c-0.02,0.15-0.03,0.3-0.03,0.45s0.01,0.3,0.03,0.45c-0.02,0.15-0.03,0.3-0.03,0.45c0,0.15,0.01,0.3,0.03,0.45
				c-0.02,0.15-0.03,0.3-0.03,0.45s0.01,0.3,0.03,0.45c-0.02,0.15-0.03,0.3-0.03,0.45s0.01,0.3,0.03,0.45
				c-0.02,0.15-0.03,0.3-0.03,0.45c0,0.15,0.01,0.3,0.03,0.45c-0.02,0.15-0.03,0.3-0.03,0.45s0.01,0.3,0.03,0.45
				c-0.02,0.15-0.03,0.3-0.03,0.45s0.01,0.3,0.03,0.45c-0.02,0.15-0.03,0.3-0.03,0.45s0.01,0.3,0.03,0.45
				c-0.02,0.15-0.03,0.3-0.03,0.45s0.01,0.3,0.03,0.45c-0.02,0.15-0.03,0.3-0.03,0.45c0,0.15,0.01,0.3,0.03,0.45
				c-0.02,0.15-0.03,0.3-0.03,0.45c0,0.15,0.01,0.3,0.03,0.45c-0.02,0.15-0.03,0.3-0.03,0.45s0.01,0.3,0.03,0.45
				c-0.02,0.15-0.03,0.3-0.03,0.45c0,0.15,0.01,0.3,0.03,0.45c-0.02,0.15-0.03,0.3-0.03,0.45c0,0.15,0.01,0.3,0.03,0.45
				c-0.02,0.15-0.03,0.3-0.03,0.45s0.01,0.3,0.03,0.45c-0.02,0.15-0.03,0.3-0.03,0.45c0,0.15,0.01,0.3,0.03,0.45
				c-0.02,0.15-0.03,0.3-0.03,0.45c0,0.15,0.01,0.3,0.03,0.45c-0.02,0.15-0.03,0.3-0.03,0.45s0.01,0.3,0.03,0.45
				c-0.02,0.15-0.03,0.3-0.03,0.45s0.01,0.3,0.03,0.45c-0.02,0.15-0.03,0.3-0.03,0.45c0,0.15,0.01,0.3,0.03,0.45
				c-0.02,0.15-0.03,0.3-0.03,0.45c0,0.15,0.01,0.3,0.03,0.45c-0.02,0.15-0.03,0.3-0.03,0.45c0,0.15,0.01,0.3,0.03,0.45
				c-0.02,0.15-0.03,0.3-0.03,0.45c0,0.15,0.01,0.3,0.03,0.45c-0.02,0.15-0.03,0.3-0.03,0.45s0.01,0.3,0.03,0.45
				c-0.02,0.15-0.03,0.3-0.03,0.45c0,0.15,0.01,0.3,0.03,0.45c-0.02,0.15-0.03,0.3-0.03,0.45c0,9.86,42.15,17.85,94.14,17.85
				c51.99,0,94.14-7.99,94.14-17.85c0-0.15-0.01-0.3-0.03-0.45c0.02-0.15,0.03-0.3,0.03-0.45c0-0.15-0.01-0.3-0.03-0.45
				c0.02-0.15,0.03-0.3,0.03-0.45s-0.01-0.3-0.03-0.45c0.02-0.15,0.03-0.3,0.03-0.45c0-0.15-0.01-0.3-0.03-0.45
				c0.02-0.15,0.03-0.3,0.03-0.45c0-0.15-0.01-0.3-0.03-0.45c0.02-0.15,0.03-0.3,0.03-0.45c0-0.15-0.01-0.3-0.03-0.45
				c0.02-0.15,0.03-0.3,0.03-0.45c0-0.15-0.01-0.3-0.03-0.45c0.02-0.15,0.03-0.3,0.03-0.45s-0.01-0.3-0.03-0.45
				c0.02-0.15,0.03-0.3,0.03-0.45s-0.01-0.3-0.03-0.45c0.02-0.15,0.03-0.3,0.03-0.45c0-0.15-0.01-0.3-0.03-0.45
				c0.02-0.15,0.03-0.3,0.03-0.45c0-0.15-0.01-0.3-0.03-0.45c0.02-0.15,0.03-0.3,0.03-0.45s-0.01-0.3-0.03-0.45
				c0.02-0.15,0.03-0.3,0.03-0.45c0-0.15-0.01-0.3-0.03-0.45c0.02-0.15,0.03-0.3,0.03-0.45c0-0.15-0.01-0.3-0.03-0.45
				c0.02-0.15,0.03-0.3,0.03-0.45s-0.01-0.3-0.03-0.45c0.02-0.15,0.03-0.3,0.03-0.45c0-0.15-0.01-0.3-0.03-0.45
				c0.02-0.15,0.03-0.3,0.03-0.45c0-0.15-0.01-0.3-0.03-0.45c0.02-0.15,0.03-0.3,0.03-0.45s-0.01-0.3-0.03-0.45
				c0.02-0.15,0.03-0.3,0.03-0.45s-0.01-0.3-0.03-0.45c0.02-0.15,0.03-0.3,0.03-0.45s-0.01-0.3-0.03-0.45
				c0.02-0.15,0.03-0.3,0.03-0.45s-0.01-0.3-0.03-0.45c0.02-0.15,0.03-0.3,0.03-0.45c0-0.15-0.01-0.3-0.03-0.45
				c0.02-0.15,0.03-0.3,0.03-0.45s-0.01-0.3-0.03-0.45c0.02-0.15,0.03-0.3,0.03-0.45s-0.01-0.3-0.03-0.45
				c0.02-0.15,0.03-0.3,0.03-0.45c0-0.15-0.01-0.3-0.03-0.45c0.02-0.15,0.03-0.3,0.03-0.45s-0.01-0.3-0.03-0.45
				c0.02-0.15,0.03-0.3,0.03-0.45s-0.01-0.3-0.03-0.45c0.02-0.15,0.03-0.3,0.03-0.45c0-0.15-0.01-0.3-0.03-0.45
				c0.02-0.15,0.03-0.3,0.03-0.45s-0.01-0.3-0.03-0.45c0.02-0.15,0.03-0.3,0.03-0.45c0-0.15-0.01-0.3-0.03-0.45
				c0.02-0.15,0.03-0.3,0.03-0.45C948.51,1557.56,948.49,1557.41,948.48,1557.26z"/>
			<ellipse class="st16" cx="854.37" cy="1556.81" rx="94.14" ry="17.85"/>
			<ellipse class="st17" cx="854.37" cy="1554.35" rx="74.24" ry="9.53"/>
		</g>
		<g>
			<path class="st12" d="M948.48,1521.83c0.02-0.15,0.03-0.3,0.03-0.45c0-9.86-42.15-17.85-94.14-17.85
				c-51.99,0-94.14,7.99-94.14,17.85c0,0.15,0.01,0.3,0.03,0.45c-0.02,0.15-0.03,0.3-0.03,0.45c0,0.15,0.01,0.3,0.03,0.45
				c-0.02,0.15-0.03,0.3-0.03,0.45s0.01,0.3,0.03,0.45c-0.02,0.15-0.03,0.3-0.03,0.45s0.01,0.3,0.03,0.45
				c-0.02,0.15-0.03,0.3-0.03,0.45c0,0.15,0.01,0.3,0.03,0.45c-0.02,0.15-0.03,0.3-0.03,0.45s0.01,0.3,0.03,0.45
				c-0.02,0.15-0.03,0.3-0.03,0.45s0.01,0.3,0.03,0.45c-0.02,0.15-0.03,0.3-0.03,0.45c0,0.15,0.01,0.3,0.03,0.45
				c-0.02,0.15-0.03,0.3-0.03,0.45c0,0.15,0.01,0.3,0.03,0.45c-0.02,0.15-0.03,0.3-0.03,0.45s0.01,0.3,0.03,0.45
				c-0.02,0.15-0.03,0.3-0.03,0.45c0,0.15,0.01,0.3,0.03,0.45c-0.02,0.15-0.03,0.3-0.03,0.45s0.01,0.3,0.03,0.45
				c-0.02,0.15-0.03,0.3-0.03,0.45s0.01,0.3,0.03,0.45c-0.02,0.15-0.03,0.3-0.03,0.45c0,0.15,0.01,0.3,0.03,0.45
				c-0.02,0.15-0.03,0.3-0.03,0.45s0.01,0.3,0.03,0.45c-0.02,0.15-0.03,0.3-0.03,0.45s0.01,0.3,0.03,0.45
				c-0.02,0.15-0.03,0.3-0.03,0.45c0,0.15,0.01,0.3,0.03,0.45c-0.02,0.15-0.03,0.3-0.03,0.45s0.01,0.3,0.03,0.45
				c-0.02,0.15-0.03,0.3-0.03,0.45c0,0.15,0.01,0.3,0.03,0.45c-0.02,0.15-0.03,0.3-0.03,0.45s0.01,0.3,0.03,0.45
				c-0.02,0.15-0.03,0.3-0.03,0.45s0.01,0.3,0.03,0.45c-0.02,0.15-0.03,0.3-0.03,0.45c0,0.15,0.01,0.3,0.03,0.45
				c-0.02,0.15-0.03,0.3-0.03,0.45c0,0.15,0.01,0.3,0.03,0.45c-0.02,0.15-0.03,0.3-0.03,0.45s0.01,0.3,0.03,0.45
				c-0.02,0.15-0.03,0.3-0.03,0.45c0,0.15,0.01,0.3,0.03,0.45c-0.02,0.15-0.03,0.3-0.03,0.45c0,0.15,0.01,0.3,0.03,0.45
				c-0.02,0.15-0.03,0.3-0.03,0.45s0.01,0.3,0.03,0.45c-0.02,0.15-0.03,0.3-0.03,0.45c0,0.15,0.01,0.3,0.03,0.45
				c-0.02,0.15-0.03,0.3-0.03,0.45c0,0.15,0.01,0.3,0.03,0.45c-0.02,0.15-0.03,0.3-0.03,0.45s0.01,0.3,0.03,0.45
				c-0.02,0.15-0.03,0.3-0.03,0.45s0.01,0.3,0.03,0.45c-0.02,0.15-0.03,0.3-0.03,0.45c0,9.86,42.15,17.85,94.14,17.85
				c51.99,0,94.14-7.99,94.14-17.85c0-0.15-0.01-0.3-0.03-0.45c0.02-0.15,0.03-0.3,0.03-0.45s-0.01-0.3-0.03-0.45
				c0.02-0.15,0.03-0.3,0.03-0.45s-0.01-0.3-0.03-0.45c0.02-0.15,0.03-0.3,0.03-0.45c0-0.15-0.01-0.3-0.03-0.45
				c0.02-0.15,0.03-0.3,0.03-0.45c0-0.15-0.01-0.3-0.03-0.45c0.02-0.15,0.03-0.3,0.03-0.45s-0.01-0.3-0.03-0.45
				c0.02-0.15,0.03-0.3,0.03-0.45c0-0.15-0.01-0.3-0.03-0.45c0.02-0.15,0.03-0.3,0.03-0.45c0-0.15-0.01-0.3-0.03-0.45
				c0.02-0.15,0.03-0.3,0.03-0.45s-0.01-0.3-0.03-0.45c0.02-0.15,0.03-0.3,0.03-0.45c0-0.15-0.01-0.3-0.03-0.45
				c0.02-0.15,0.03-0.3,0.03-0.45c0-0.15-0.01-0.3-0.03-0.45c0.02-0.15,0.03-0.3,0.03-0.45s-0.01-0.3-0.03-0.45
				c0.02-0.15,0.03-0.3,0.03-0.45s-0.01-0.3-0.03-0.45c0.02-0.15,0.03-0.3,0.03-0.45c0-0.15-0.01-0.3-0.03-0.45
				c0.02-0.15,0.03-0.3,0.03-0.45s-0.01-0.3-0.03-0.45c0.02-0.15,0.03-0.3,0.03-0.45c0-0.15-0.01-0.3-0.03-0.45
				c0.02-0.15,0.03-0.3,0.03-0.45s-0.01-0.3-0.03-0.45c0.02-0.15,0.03-0.3,0.03-0.45s-0.01-0.3-0.03-0.45
				c0.02-0.15,0.03-0.3,0.03-0.45c0-0.15-0.01-0.3-0.03-0.45c0.02-0.15,0.03-0.3,0.03-0.45s-0.01-0.3-0.03-0.45
				c0.02-0.15,0.03-0.3,0.03-0.45s-0.01-0.3-0.03-0.45c0.02-0.15,0.03-0.3,0.03-0.45c0-0.15-0.01-0.3-0.03-0.45
				c0.02-0.15,0.03-0.3,0.03-0.45s-0.01-0.3-0.03-0.45c0.02-0.15,0.03-0.3,0.03-0.45c0-0.15-0.01-0.3-0.03-0.45
				c0.02-0.15,0.03-0.3,0.03-0.45c0-0.15-0.01-0.3-0.03-0.45c0.02-0.15,0.03-0.3,0.03-0.45s-0.01-0.3-0.03-0.45
				c0.02-0.15,0.03-0.3,0.03-0.45s-0.01-0.3-0.03-0.45c0.02-0.15,0.03-0.3,0.03-0.45c0-0.15-0.01-0.3-0.03-0.45
				c0.02-0.15,0.03-0.3,0.03-0.45s-0.01-0.3-0.03-0.45c0.02-0.15,0.03-0.3,0.03-0.45s-0.01-0.3-0.03-0.45
				c0.02-0.15,0.03-0.3,0.03-0.45C948.51,1522.13,948.49,1521.98,948.48,1521.83z"/>
			<ellipse class="st16" cx="854.37" cy="1521.38" rx="94.14" ry="17.85"/>
			<ellipse class="st12" cx="854.37" cy="1518.93" rx="74.24" ry="9.53"/>
		</g>
		<g>
			<path class="st12" d="M1073.33,1577.5c0.08-0.12,0.16-0.24,0.23-0.36c4.5-8.38-27.68-40.81-71.87-72.43
				c-44.19-31.62-83.66-50.46-88.16-42.08c-0.07,0.13-0.13,0.26-0.18,0.4c-0.09,0.12-0.16,0.24-0.23,0.36
				c-0.07,0.13-0.13,0.26-0.18,0.4c-0.09,0.12-0.16,0.24-0.23,0.36c-0.07,0.13-0.13,0.26-0.18,0.4c-0.09,0.12-0.16,0.24-0.23,0.36
				s-0.13,0.26-0.18,0.4c-0.09,0.12-0.16,0.24-0.23,0.36c-0.07,0.13-0.13,0.26-0.18,0.4c-0.09,0.12-0.16,0.24-0.23,0.36
				s-0.13,0.26-0.18,0.4c-0.09,0.12-0.16,0.24-0.23,0.36c-0.07,0.13-0.13,0.26-0.18,0.4c-0.09,0.12-0.16,0.24-0.23,0.36
				c-0.07,0.13-0.13,0.26-0.18,0.4c-0.09,0.12-0.16,0.24-0.23,0.36c-0.07,0.13-0.13,0.26-0.18,0.4c-0.09,0.12-0.16,0.24-0.23,0.36
				c-0.07,0.13-0.13,0.26-0.18,0.4c-0.08,0.12-0.16,0.24-0.23,0.36c-0.07,0.13-0.13,0.26-0.18,0.4c-0.09,0.12-0.16,0.24-0.23,0.36
				c-0.07,0.13-0.13,0.26-0.18,0.4c-0.09,0.12-0.16,0.24-0.23,0.36c-0.07,0.13-0.13,0.26-0.18,0.4c-0.09,0.12-0.16,0.24-0.23,0.36
				c-0.07,0.13-0.13,0.26-0.18,0.4c-0.09,0.12-0.16,0.24-0.23,0.36c-0.07,0.13-0.13,0.26-0.18,0.4c-0.09,0.12-0.16,0.24-0.23,0.36
				c-0.07,0.13-0.13,0.26-0.18,0.4c-0.08,0.12-0.16,0.24-0.23,0.36c-0.07,0.13-0.13,0.26-0.18,0.4c-0.09,0.12-0.16,0.24-0.23,0.36
				c-0.07,0.13-0.13,0.26-0.18,0.4c-0.09,0.12-0.16,0.24-0.23,0.36c-0.07,0.13-0.13,0.26-0.18,0.4c-0.09,0.12-0.16,0.24-0.23,0.36
				c-0.07,0.13-0.13,0.26-0.18,0.4c-0.09,0.12-0.16,0.24-0.23,0.36s-0.13,0.26-0.18,0.4c-0.08,0.12-0.16,0.24-0.23,0.36
				c-0.07,0.13-0.13,0.26-0.18,0.4c-0.09,0.12-0.16,0.24-0.23,0.36c-0.07,0.13-0.13,0.26-0.18,0.4c-0.09,0.12-0.16,0.24-0.23,0.36
				c-0.07,0.13-0.13,0.26-0.18,0.4c-0.09,0.12-0.16,0.24-0.23,0.36c-0.07,0.13-0.13,0.26-0.18,0.4c-0.09,0.12-0.16,0.24-0.23,0.36
				c-0.07,0.13-0.13,0.26-0.18,0.4c-0.08,0.12-0.16,0.24-0.23,0.36c-0.07,0.13-0.13,0.26-0.18,0.4c-0.08,0.12-0.16,0.24-0.23,0.36
				c-0.07,0.13-0.13,0.26-0.18,0.4c-0.09,0.12-0.16,0.24-0.23,0.36c-0.07,0.13-0.13,0.26-0.18,0.4c-0.09,0.12-0.16,0.24-0.23,0.36
				c-0.07,0.13-0.13,0.26-0.18,0.4c-0.09,0.12-0.16,0.24-0.23,0.36c-0.07,0.13-0.13,0.26-0.18,0.4c-0.09,0.12-0.16,0.24-0.23,0.36
				c-4.5,8.38,27.68,40.81,71.87,72.43c44.19,31.62,83.66,50.46,88.16,42.08c0.07-0.13,0.13-0.26,0.18-0.4
				c0.08-0.12,0.16-0.24,0.23-0.36c0.07-0.13,0.13-0.26,0.18-0.4c0.09-0.12,0.16-0.24,0.23-0.36c0.07-0.13,0.13-0.26,0.18-0.4
				c0.08-0.12,0.16-0.24,0.23-0.36c0.07-0.13,0.13-0.26,0.18-0.4c0.08-0.12,0.16-0.24,0.23-0.36c0.07-0.13,0.13-0.26,0.18-0.4
				c0.08-0.12,0.16-0.24,0.23-0.36c0.07-0.13,0.13-0.26,0.18-0.4c0.09-0.12,0.16-0.24,0.23-0.36s0.13-0.26,0.18-0.4
				c0.09-0.12,0.16-0.24,0.23-0.36c0.07-0.13,0.13-0.26,0.18-0.4c0.08-0.12,0.16-0.24,0.23-0.36s0.13-0.26,0.18-0.4
				c0.08-0.12,0.16-0.24,0.23-0.36c0.07-0.13,0.13-0.26,0.18-0.4c0.08-0.12,0.16-0.24,0.23-0.36c0.07-0.13,0.13-0.26,0.18-0.4
				c0.08-0.12,0.16-0.24,0.23-0.36c0.07-0.13,0.13-0.26,0.18-0.4c0.08-0.12,0.16-0.24,0.23-0.36c0.07-0.13,0.13-0.26,0.18-0.4
				c0.08-0.12,0.16-0.24,0.23-0.36c0.07-0.13,0.13-0.26,0.18-0.4c0.09-0.12,0.16-0.24,0.23-0.36c0.07-0.13,0.13-0.26,0.18-0.4
				c0.08-0.12,0.16-0.24,0.23-0.36c0.07-0.13,0.13-0.26,0.18-0.4c0.09-0.12,0.16-0.24,0.23-0.36c0.07-0.13,0.13-0.26,0.18-0.4
				c0.09-0.12,0.16-0.24,0.23-0.36c0.07-0.13,0.13-0.26,0.18-0.4c0.09-0.12,0.16-0.24,0.23-0.36c0.07-0.13,0.13-0.26,0.18-0.4
				c0.08-0.12,0.16-0.24,0.23-0.36c0.07-0.13,0.13-0.26,0.18-0.4c0.08-0.12,0.16-0.24,0.23-0.36s0.13-0.26,0.18-0.4
				c0.08-0.12,0.16-0.24,0.23-0.36c0.07-0.13,0.13-0.26,0.18-0.4c0.08-0.12,0.16-0.24,0.23-0.36c0.07-0.13,0.13-0.26,0.18-0.4
				c0.08-0.12,0.16-0.24,0.23-0.36c0.07-0.13,0.13-0.26,0.18-0.4c0.08-0.12,0.16-0.24,0.23-0.36c0.07-0.13,0.13-0.26,0.18-0.4
				c0.09-0.12,0.16-0.24,0.23-0.36c0.07-0.13,0.13-0.26,0.18-0.4c0.09-0.12,0.16-0.24,0.23-0.36c0.07-0.13,0.13-0.26,0.18-0.4
				c0.09-0.12,0.16-0.24,0.23-0.36c0.07-0.13,0.13-0.26,0.18-0.4c0.09-0.12,0.16-0.24,0.23-0.36c0.07-0.13,0.13-0.26,0.18-0.4
				c0.08-0.12,0.16-0.24,0.23-0.36c0.07-0.13,0.13-0.26,0.18-0.4c0.09-0.12,0.16-0.24,0.23-0.36S1073.28,1577.64,1073.33,1577.5z"/>
			
				<ellipse transform="matrix(0.5852 -0.8109 0.8109 0.5852 -820.3325 1436.1775)" class="st16" cx="993.55" cy="1519.88" rx="17.08" ry="98.42"/>
			
				<ellipse transform="matrix(0.5834 -0.8122 0.8122 0.5834 -818.3527 1440.2098)" class="st12" cx="994.67" cy="1517.79" rx="9.12" ry="77.6"/>
		</g>
	</g>
	<g>
		<path class="st11" d="M541.34,1574.4c-2.02,1.01-4.34,1.26-6.6,1.25c-6.99-0.03-14.67-3.08-17.31-9.56
			c-1.21-2.97-1.21-6.28-1.19-9.48c0.06-11.13,0.15-22.42,3.13-33.15c2.1-7.55,15.07-6.89,21.23-4.68c6.96,2.5,6.83,3.95,7.2,10.87
			C548.39,1540.59,553.34,1568.38,541.34,1574.4z"/>
		<path class="st11" d="M622.28,1247.01c3.33,1.56,5.08,5.86,3.78,9.3c-1.09,2.87-3.92,6.05-2,8.44c0.63,0.79,1.63,1.16,2.56,1.53
			c9.32,3.64,17.77,9.47,24.48,16.9c1.84,2.04,3.62,4.34,4.02,7.06c0.39,2.72-1.11,5.9-3.81,6.43c-2.58,0.51-5.42-1.42-7.76-0.22
			c-3.09,1.58-2.71,7.33-6.12,7.92c-2.23,0.39-4.68-1.96-6.55-0.68c-0.73,0.5-1.05,1.41-1.54,2.15c-2.02,3.09-6.55,3.01-10.14,2.15
			c-6.46-1.55-12.57-4.49-17.81-8.57c-3.7-2.88-6.94-6.3-10.16-9.7c-4.5-4.75-9.01-9.51-13.51-14.26
			c-8.08-8.53-17.06-30.22,2.01-30.99c5.67-0.23,12.15,4.05,18.01,4.49C604.96,1249.51,615.72,1243.95,622.28,1247.01z"/>
		<path class="st11" d="M358.47,1555.85c-1.86,3.6-4.29,7.92-8.34,7.94c-2.3,0.01-4.31-1.46-6.14-2.87
			c-6.23-4.81-12.97-10.48-13.85-18.3c-0.68-6.09,2.54-12.07,6.89-16.38c4.36-4.31,9.8-7.33,14.94-10.66
			c10.57-6.85,27.6-6.16,26.05,11.17C377.14,1536.7,363.11,1546.86,358.47,1555.85z"/>
		<path class="st9" d="M507.45,1599.41c-1.08-8.13-2.16-16.26-3.23-24.39c-0.78-5.89-0.6-13.54,4.92-15.72
			c2.97-1.17,6.29-0.12,9.46,0.3c10.98,1.43,22.55-5.06,32.87-1.05c4.09,1.59,7.4,4.65,10.81,7.41
			c14.24,11.52,29.42,12.41,44.97,19.8c12.71,6.03,6.22,13.06-4.1,15.8C593.98,1604,507.7,1601.36,507.45,1599.41z"/>
		<path class="st9" d="M305.75,1556.15c4.23-7.03,8.45-14.06,12.68-21.09c3.06-5.09,7.97-10.96,13.65-9.22
			c3.06,0.94,4.99,3.83,7.21,6.13c7.7,7.97,20.78,10.11,26.35,19.68c2.21,3.79,2.88,8.25,3.83,12.54
			c3.95,17.89,15.26,28.05,22.82,43.52c6.17,12.64-3.28,14.09-13.06,9.8C370.54,1613.69,304.73,1557.84,305.75,1556.15z"/>
		<path class="st12" d="M514.85,1114.06c3.6,12.27,5.19,25.06,8.73,37.35c10.91,37.9,41.35,69.59,78.77,82.02
			c-9.07,15.3-16.75,31.43-22.92,48.12c-65.77-26.49-112.51-92.97-118.72-163.6c-0.97-11.01-0.73-23.07,6.07-31.78
			C486.53,1060.88,509.93,1097.31,514.85,1114.06z"/>
		<path class="st6" d="M466.03,1397.88c-1.29,14.81-2.27,29.83-6.13,43.93c-7.32,26.7-24.19,47.45-40.88,66.62
			c-9.9,11.38-19.94,22.57-30.1,33.59c-2.04,2.21-4.27,4.52-6.97,4.88c-3.95,0.52-7.34-3.24-10.14-6.73
			c-8.73-10.85-17.46-21.7-26.19-32.54c10.59-20.22,21.17-40.44,31.76-60.66c4.95-9.45,9.95-19.04,12.74-29.76
			c4.26-16.39,3.05-34.08,1.84-51.24c-2.52-35.67-4.66-72.85,5.99-106.14c2.33-7.29,5.48-14.61,10.77-18.91
			c4.64-3.77,10.36-4.77,15.89-5.22c14.08-1.15,28.32,0.64,41.93,5.27c3.03,1.03,6.13,2.26,8.54,4.77
			c10.65,11.06,7.04,50.44,5.16,65.33c-0.78,6.15-2.05,12.19-3.33,18.21C472.03,1352.28,467.95,1374.03,466.03,1397.88z"/>
		<path class="st6" d="M490.68,1250.01c10.69-5.79,33.53-7.84,40.98,4.67c0.54,0.91,0.73,1.98,0.96,3.01
			c2.62,12.1,8.36,24.34,12,36.35c3.89,12.84,7.78,25.67,11.67,38.51c7.78,25.67,15.64,51.33,23.34,77.02
			c1.7,5.59,3.41,11.3,3.3,17.15c-0.13,6.73-2.66,13.15-4.94,19.49c-9.21,25.54-14.93,52.34-16.96,79.42
			c-0.15,2.03-0.35,4.22-1.69,5.75c-1.28,1.46-3.3,1.98-5.21,2.37c-13.92,2.92-28.26,3.8-42.43,2.59c-2.37-0.2-5.01-0.61-6.46-2.49
			c-1.5-1.94-1.16-4.68-0.77-7.1c3.18-19.53,5.26-39.25,6.2-59.02c0.37-7.8,0.57-15.69-1.04-23.32
			c-2.63-12.53-9.87-23.5-15.86-34.82c-9.88-18.68-16.57-38.87-22.38-59.18c-5.08-17.77-9.57-36.16-7.82-54.56
			C465.35,1277.46,474.43,1258.81,490.68,1250.01z"/>
		<path class="st9" d="M485.02,990.98c-6.55,6.12-6.39,16.68-3.48,25.16s8.03,16.16,10.05,24.89c2.02,8.73-0.25,19.57-8.35,23.4
			c-6.33,2.99-13.77,0.74-20.76,1.15c-10.63,0.63-19.88,7.48-27.23,15.18c-7.35,7.7-13.57,16.56-21.92,23.16
			c-14.47,11.45-34.29,14.89-52.44,11.56c-18.15-3.33-34.72-12.88-48.7-24.93c-15.38-13.26-28.44-30.67-31.12-50.8
			c-2.68-20.13,7.6-42.79,26.76-49.51c9.76-3.42,21.5-2.96,28.88-10.2c9.67-9.49,5.84-25.78,10.28-38.59
			c4.54-13.11,19.11-21.92,32.83-19.87c9.67,1.45,20.82,7.17,28.13,0.68c2.11-1.87,3.39-4.48,4.83-6.91
			c30.44-51.37,110.48-11.59,105.97,40.79c-0.73,8.53-3.05,16.99-9.74,22.86C502.07,985.1,491.73,984.71,485.02,990.98z"/>
		<path class="st10" d="M507.77,1081.13c3.09,6.83,4,14.44,6.59,21.48c4.98,13.52,16.25,25.72,14.55,40.02
			c-1.1,9.31-7.65,17.16-9.56,26.33c-2.48,11.91,3.09,23.83,8.05,34.94c4.96,11.11,9.47,23.83,4.97,35.14
			c-3.5,8.8-11.98,14.85-20.99,17.75c-9.02,2.89-18.64,3.08-28.11,3.24c-13.73,0.23-27.47,0.46-41.2,0.69
			c-11.27,0.19-23.6,0.03-32.28-7.16c-7.22-5.98-10.26-15.53-12.44-24.64c-9.7-40.62-8.81-83.64,2.08-123.93
			c7.56-27.95,26.59-84.46,66.54-62.98C480.89,1050.01,500.72,1065.54,507.77,1081.13z"/>
		<path class="st11" d="M471.7,1067.65c-2.59,0.36-5.36-1.82-7.23-3.98c-7.15-8.25-12.6-18.2-21.41-24.65
			c-1-0.73-2.05-1.43-2.76-2.45c-3.08-4.45-2.07-15.74,3.74-17.67c6.58-2.19,19.49,1.98,24.67,4.9c5.18,2.92,7.17,6.06,6.43,10.63
			c0,3.26-2.12,6.37-2.18,9.63c-0.06,3.21,1.31,6.87,1.98,10.01c0.6,2.84,1.2,5.75,0.77,8.61c-0.26,1.76-1.03,3.59-2.58,4.47
			C472.66,1067.43,472.18,1067.58,471.7,1067.65z"/>
		<path class="st11" d="M514.23,1009.58c-0.46,4.97-3.35,9.34-6.29,13.36c-6.11,8.34-13.29,16.52-22.94,20.23
			c-8.47,3.25-18.35,2.57-26.3-1.8c-7.95-4.37-13.81-12.36-15.6-21.25c-2.18-2.74-4.35-5.48-6.53-8.21
			c-4.66-5.86-9.59-13.36-6.7-20.27c2.47-5.91,10.98-8.2,16.08-4.33c-2.49-16.86,8.67-34.7,24.92-39.84
			c12.62-3.99,33.24,0.08,39.23,13.4c2.33,5.18,1.23,11.79,1.32,17.26C511.6,988.32,515.15,999.61,514.23,1009.58z"/>
		<path class="st11" d="M419.69,1300.55c-1.23,4.18-6.49,5.37-9.83,8.16c-4.43,3.71-5.24,10.05-6.71,15.64s-5.07,11.79-10.84,11.93
			c-4.81,0.12-8.5-4.06-11.46-7.86c-2.58-3.33-5.22-6.75-6.43-10.79c-0.94-3.13-0.97-6.45-0.98-9.71
			c-0.03-4.78-0.05-9.59,0.77-14.31c0.84-4.76,2.54-9.42,2.42-14.31c-0.12-5.05-3.21-10.41-2.12-15.45
			c1.91-8.88,6.96-8.69,13.21-3.86c7.14,5.51,8.77,14.55,13.73,21.44C405.61,1287.21,422.23,1291.91,419.69,1300.55z"/>
		<path class="st9" d="M473.02,970.64c-7.68,8.36-10.96,20.01-18.56,28.44c-1.41,1.57-3.54,3.12-5.44,2.22
			c-0.98-0.47-1.57-1.48-2.1-2.43c-7.68-13.77-15.62-29.25-11.9-44.57c1.54-6.37,5.04-12.13,9.28-17.11
			c3.84-4.51,8.37-8.5,13.66-11.16c13.97-7.04,45.17-3.39,50.9,14.5C513.55,955.17,481.55,961.34,473.02,970.64z"/>
		<path class="st10" d="M444.88,1113.1c-3.47,17.22-12.27,32.82-21.07,48.02c-8.8,15.2-17.85,30.61-21.88,47.71
			c-4.19,17.77-2.63,36.84,4.39,53.69c1.6,3.83,3.48,8.19,1.68,11.94c-1.11,2.33-3.42,3.82-5.61,5.18
			c-10.52,6.55-21.04,13.11-31.56,19.66c-6.07-11.99-9.63-25.07-13.15-38.04c-3.77-13.88-7.55-27.84-9.04-42.15
			c-3.39-32.46,5.13-64.9,14.62-96.13c4.46-14.67,9.47-29.82,20.02-40.94c10.17-10.72,31.56-28.62,47.47-20.01
			C446.95,1070.8,447.99,1097.64,444.88,1113.1z"/>
	</g>
	<g>
		
			<rect x="621.37" y="1173.08" transform="matrix(0.9497 0.3132 -0.3132 0.9497 437.7387 -184.5748)" class="st2" width="344.09" height="194.47"/>
		
			<rect x="621.41" y="1173.1" transform="matrix(0.9497 0.3132 -0.3132 0.9497 437.7387 -184.5748)" class="st2" width="344.03" height="194.42"/>
		<path class="st3" d="M972.53,1276.53l14.73-44.68l-0.06-0.02l-44.87-14.8l-236.92-78.13l-44.93-14.82l-14.73,44.68l-31.44,95.34
			l-14.72,44.63l-0.02,0.05l44.93,14.82c0.01-0.02,0.01-0.03,0.02-0.05l236.92,78.13c-0.01,0.02-0.01,0.03-0.02,0.05l44.93,14.82
			l14.73-44.68c-0.02-0.01-0.04-0.01-0.06-0.02l31.44-95.33C972.49,1276.51,972.51,1276.52,972.53,1276.53z M695.34,1156.28
			l244.76,80.71c1.26,11.78,7,22.73,16.03,30.46L922.5,1369.4c-11.84,0.85-22.95,6.22-30.97,14.92l-244.8-80.72
			c-1.28-11.78-7.03-22.73-16.07-30.46l33.6-101.89C676.14,1170.41,687.3,1165.01,695.34,1156.28z"/>
		<circle class="st4" cx="793.42" cy="1270.32" r="53.6"/>
		<g>
			<g>
				<path class="st3" d="M775.26,1308.12l3.03-9.2c-6.39-2.43-12.11-6.25-15.08-9.59l6.64-10.37c3.33,3.57,8.37,7.48,14.66,9.56
					c5.52,1.82,9.99,0.93,11.27-2.94c1.21-3.68-1.12-7.02-7.48-11.8c-9.21-6.9-14.68-14.07-11.58-23.46
					c2.81-8.52,11.01-13.22,22.04-11.84l3.03-9.2l9.49,3.13l-2.81,8.52c6.39,2.43,10.3,5.22,12.98,7.82l-6.41,10.01
					c-2.17-1.89-5.88-5.59-12.85-7.89c-6.29-2.07-9.22-0.03-10.11,2.68c-1.05,3.19,1.66,6.34,8.87,12.15
					c10.18,7.86,13.07,14.72,10.2,23.43c-2.84,8.61-11.36,13.96-23.13,12.23l-3.26,9.87L775.26,1308.12z"/>
			</g>
		</g>
		<circle class="st3" cx="693.78" cy="1237.46" r="18.11"/>
		<circle class="st3" cx="893.23" cy="1303.23" r="18.11"/>
	</g>
</g>
</svg>
